<svg width="18" height="18" viewBox="0 0 18 18" fill="none" xmlns="http://www.w3.org/2000/svg">
<path fill-rule="evenodd" clip-rule="evenodd" d="M14.6369 1.12455C15.1808 1.12481 15.7022 1.34107 16.0866 1.72588C16.471 2.1107 16.6868 2.63238 16.6865 3.17618C16.6863 3.72012 16.4699 4.24153 16.0851 4.62593C15.7003 5.01034 15.1786 5.22605 14.6347 5.22567C14.0908 5.22541 13.5693 5.00902 13.185 4.62424C12.8008 4.23929 12.585 3.71761 12.5853 3.17367C12.5864 2.63014 12.8029 2.1091 13.1874 1.72497C13.5721 1.3407 14.0934 1.12486 14.6369 1.12458V1.12455ZM3.17977 11.0491C2.63556 11.0491 2.11374 10.833 1.72907 10.4482C1.34426 10.0633 1.12814 9.54152 1.12814 8.99745C1.12814 8.45337 1.34426 7.93155 1.72907 7.54674C2.11374 7.16193 2.63556 6.94582 3.17977 6.94582C3.72384 6.94582 4.24566 7.16194 4.63047 7.54674C5.01515 7.93155 5.2314 8.45337 5.2314 8.99745C5.23061 9.54139 5.01422 10.0627 4.62969 10.4473C4.24502 10.8319 3.72361 11.0483 3.1798 11.049L3.17977 11.0491ZM14.6376 12.7668H14.6374C15.1816 12.7666 15.7036 12.9828 16.0884 13.3676C16.4732 13.7524 16.6894 14.2742 16.6894 14.8184C16.6896 15.3626 16.4733 15.8846 16.0886 16.2694C15.7038 16.6542 15.1819 16.8703 14.6377 16.8703C14.0936 16.8704 13.5717 16.6542 13.1869 16.2694C12.8021 15.8845 12.5858 15.3627 12.5858 14.8185C12.5867 14.2747 12.8031 13.7534 13.1875 13.3689C13.5721 12.9842 14.0932 12.7677 14.637 12.7668H14.6376ZM14.6376 6.35079H14.6374C15.5333 6.35053 16.3875 5.97182 16.9892 5.30797C17.5909 4.64425 17.8841 3.75723 17.7968 2.86559C17.7094 1.97395 17.2493 1.16074 16.5302 0.626475C15.8111 0.0922049 14.8997 -0.11343 14.0207 0.0602844C13.142 0.234002 12.3773 0.770914 11.9155 1.53867C11.4537 2.30629 11.3378 3.23344 11.5961 4.09116L5.71068 7.08157C5.1719 6.36908 4.35805 5.91629 3.46851 5.83427C2.57898 5.75224 1.69609 6.0484 1.03608 6.65039C0.376058 7.25237 0 8.10439 0 8.99762C0 9.89085 0.376058 10.7429 1.03608 11.3448C1.69609 11.9468 2.57898 12.243 3.46851 12.161C4.35805 12.0789 5.1719 11.6262 5.71068 10.9137L11.5958 13.9046C11.5061 14.201 11.4606 14.509 11.461 14.8186C11.4598 15.8323 11.9423 16.7857 12.7599 17.385C13.5773 17.9844 14.6317 18.1577 15.598 17.8517C16.5644 17.5457 17.3267 16.797 17.6503 15.8364C17.9739 14.8758 17.8197 13.8185 17.2353 12.9902C16.6509 12.162 15.7065 11.6622 14.693 11.6448C13.6795 11.6276 12.7185 12.0949 12.1062 12.9026L6.22146 9.91164C6.40087 9.3155 6.40087 8.67974 6.22146 8.08356L12.1062 5.0926C12.7066 5.88484 13.6432 6.35049 14.6371 6.35076L14.6376 6.35079Z" fill="#767676"/>
</svg>
