<svg width="7" height="10" viewBox="0 0 7 10" fill="none" xmlns="http://www.w3.org/2000/svg">
<path fill-rule="evenodd" clip-rule="evenodd" d="M1.04953 0C0.473316 0 0 0.473316 0 1.04953V9.63534C8.14617e-05 9.74133 0.0575966 9.83893 0.150224 9.89041C0.242852 9.9419 0.356092 9.93912 0.446123 9.88316L3.5 7.98881L6.55388 9.88316C6.6439 9.93912 6.75714 9.94189 6.84977 9.89041C6.9424 9.83892 6.99992 9.74132 7 9.63534V1.04953C7 0.473316 6.52668 0 5.95046 0H1.04953ZM1.04953 0.584039H5.95017C6.21322 0.584039 6.41566 0.786483 6.41566 1.04953V9.11166L3.65293 7.39834C3.55908 7.34058 3.44079 7.34058 3.34694 7.39834L0.584205 9.11166V1.04953C0.584205 0.786483 0.78665 0.584039 1.0497 0.584039H1.04953Z" fill="#3D50DF"/>
</svg>
