<svg width="9" height="13" viewBox="0 0 9 13" fill="none" xmlns="http://www.w3.org/2000/svg">
<path fill-rule="evenodd" clip-rule="evenodd" d="M1.3494 0C0.60855 0 0 0.619826 0 1.3744V12.6178C0.000104737 12.7566 0.0740528 12.8845 0.193146 12.9519C0.312239 13.0193 0.457832 13.0157 0.573587 12.9424L4.5 10.4616L8.42641 12.9424C8.54215 13.0157 8.68775 13.0193 8.80685 12.9519C8.92595 12.8844 8.9999 12.7566 9 12.6178V1.3744C9 0.619826 8.39145 0 7.6506 0H1.3494ZM1.3494 0.764821H7.65022C7.98843 0.764821 8.24871 1.02993 8.24871 1.3744V11.9321L4.69663 9.6884C4.57596 9.61276 4.42387 9.61276 4.30321 9.6884L0.751121 11.9321V1.3744C0.751121 1.02993 1.01141 0.764821 1.34962 0.764821H1.3494Z" fill="black"/>
</svg>
