<svg width="17" height="17" viewBox="0 0 17 17" fill="none" xmlns="http://www.w3.org/2000/svg">
<path fill-rule="evenodd" clip-rule="evenodd" d="M13.055 7.12471C13.7909 7.11906 14.3861 7.7109 14.3846 8.44698C14.3829 9.18288 13.785 9.784 13.0492 9.78975L9.82203 9.81226L9.79952 13.043C9.79349 13.7728 9.19246 14.3637 8.45723 14.3629C7.72182 14.3619 7.13084 13.7693 7.13688 13.0394L7.15919 9.83094L3.94494 9.85345C3.20924 9.85919 2.61386 9.26726 2.61539 8.53127C2.61711 7.79538 3.21508 7.19425 3.95088 7.1886L7.17797 7.16599L7.20057 3.93526C7.2067 3.2055 7.80764 2.61452 8.54286 2.61539C9.27828 2.61625 9.86925 3.20895 9.86312 3.9389L9.84081 7.14732L13.055 7.12471Z" fill="white"/>
</svg>
