<svg width="22" height="25" viewBox="0 0 22 25" fill="none" xmlns="http://www.w3.org/2000/svg">
<g clip-path="url(#clip0_262_1168)">
<path fill-rule="evenodd" clip-rule="evenodd" d="M10.9624 0C15.0645 2.60034 18.7705 3.83017 21.9506 3.53983C22.5063 14.7745 18.3574 21.4089 11.0044 24.1783C3.90445 21.5864 -0.295381 15.2371 0.0162072 3.36893C3.7496 3.56438 7.41264 2.75755 10.9624 0ZM13.1459 10.3967V9.60163C13.1459 8.97562 12.9023 8.40815 12.5095 7.99884C12.1214 7.59425 11.587 7.34262 10.9997 7.34262C10.4129 7.34262 9.87844 7.59425 9.49037 7.99884C9.09758 8.40815 8.85398 8.97562 8.85398 9.60163V10.3967H13.1459ZM7.89466 10.3967V9.60163C7.89466 8.72116 8.24166 7.91906 8.80063 7.33601C9.36479 6.74824 10.1428 6.38331 11.0002 6.38331C11.8575 6.38331 12.636 6.74777 13.1992 7.33601C13.7587 7.91906 14.1056 8.72116 14.1056 9.60163V10.3967H14.4489C14.7274 10.3967 14.9554 10.6247 14.9554 10.9032V16.2578C14.9554 16.5368 14.7274 16.7649 14.4489 16.7649H7.55144C7.27243 16.7649 7.04488 16.5368 7.04488 16.2578V10.9032C7.0444 10.6247 7.27243 10.3967 7.55144 10.3967H7.89466ZM10.5842 13.8166L10.0371 15.2485H11.9628L11.4562 13.7967C11.7777 13.6315 11.9972 13.2963 11.9972 12.9101C11.9972 12.3587 11.5511 11.9126 10.9997 11.9126C10.4492 11.9126 10.0026 12.3587 10.0026 12.9101C10.0026 13.3119 10.241 13.6584 10.5842 13.8166ZM10.9695 1.87142C14.3714 4.02751 17.6365 5.23987 20.2741 4.99863C20.7349 14.3156 17.1021 20.0101 11.0053 22.3064C5.11634 20.1574 1.44149 14.6999 1.69973 4.85747C5.11681 5.0364 8.24827 3.98549 10.9695 1.87142Z" fill="#767676"/>
</g>
<defs>
<clipPath id="clip0_262_1168">
<rect width="22" height="24.1783" fill="white"/>
</clipPath>
</defs>
</svg>
