<svg width="12" height="12" viewBox="0 0 12 12" fill="none" xmlns="http://www.w3.org/2000/svg">
<path fill-rule="evenodd" clip-rule="evenodd" d="M5.99978 0C5.44752 0 4.99982 0.447699 4.99982 0.999963V4.99982H0.999963C0.447699 4.99982 0 5.44752 0 5.99978C0 6.55204 0.447699 6.99974 0.999963 6.99974H4.99982V10.9996C4.99982 11.5519 5.44752 11.9996 5.99978 11.9996C6.55204 11.9996 6.99974 11.5519 6.99974 10.9996V6.99974H10.9996C11.5519 6.99974 11.9996 6.55204 11.9996 5.99978C11.9996 5.44752 11.5519 4.99982 10.9996 4.99982H6.99974V0.999963C6.99974 0.447699 6.55204 0 5.99978 0Z" fill="#0063D8"/>
</svg>
