<svg width="12" height="11" viewBox="0 0 12 11" fill="none" xmlns="http://www.w3.org/2000/svg">
<g clip-path="url(#clip0_262_7804)">
<path d="M6.05138 0.187793L7.52713 3.63527L11.2724 3.96969C11.3315 3.97453 11.3879 3.99677 11.4344 4.03361C11.481 4.07044 11.5155 4.12022 11.5338 4.17667C11.5521 4.23312 11.5533 4.29372 11.5372 4.35084C11.5211 4.40795 11.4884 4.45902 11.4434 4.49761L8.60834 6.96815L9.44438 10.6317C9.45311 10.6702 9.45415 10.71 9.44744 10.7489C9.44073 10.7878 9.4264 10.825 9.40528 10.8583C9.38416 10.8917 9.35665 10.9205 9.32435 10.9432C9.29205 10.9659 9.25558 10.982 9.21705 10.9905C9.13734 11.0073 9.05422 10.9918 8.98596 10.9473L5.76863 9.02725L2.54284 10.9567C2.50914 10.9771 2.47173 10.9907 2.43276 10.9966C2.3938 11.0025 2.35405 11.0007 2.3158 10.9912C2.27756 10.9816 2.24157 10.9647 2.20992 10.9412C2.17827 10.9177 2.15159 10.8882 2.1314 10.8543C2.11117 10.8212 2.09769 10.7844 2.09173 10.746C2.08576 10.7076 2.08743 10.6685 2.09664 10.6307L2.93362 6.96721L0.10236 4.49761C0.0428489 4.44481 0.00637891 4.37081 0.000760462 4.29145C-0.00485798 4.21209 0.0208218 4.13368 0.0723005 4.07302C0.129036 4.01489 0.206214 3.98119 0.287416 3.97908L4.01859 3.64467L5.49433 0.187793C5.51814 0.133763 5.55714 0.0878229 5.6066 0.0555704C5.65605 0.0233179 5.71381 0.00614548 5.77286 0.00614548C5.8319 0.00614548 5.88966 0.0233179 5.93912 0.0555704C5.98857 0.0878229 6.02757 0.133763 6.05138 0.187793Z" fill="#FFD401"/>
</g>
<defs>
<clipPath id="clip0_262_7804">
<rect width="11.543" height="11" fill="white"/>
</clipPath>
</defs>
</svg>
