<svg width="46" height="26" viewBox="0 0 46 26" fill="none" xmlns="http://www.w3.org/2000/svg">
<path fill-rule="evenodd" clip-rule="evenodd" d="M8 21.5119C8 22.309 8.47494 23.0266 9.22317 23.3016C11.6316 24.1868 17.2269 25.9999 22.6504 25.9999C28.0594 25.9999 33.4685 24.1964 35.8033 23.3087C36.5374 23.0296 37 22.3201 37 21.5347C37 20.0985 35.5077 19.1001 34.1459 19.5562C31.3982 20.4765 27.0164 21.6536 22.5773 21.6536C18.102 21.6536 13.6266 20.4573 10.8386 19.5338C9.48012 19.0838 8 20.0809 8 21.5119Z" fill="#5669FF"/>
<path opacity="0.2" fill-rule="evenodd" clip-rule="evenodd" d="M0 4.03618C0 3.46664 0.222336 2.91819 0.65462 2.54736C1.71934 1.63401 3.92308 0 6.06222 0C8.21027 0 10.3583 1.64765 11.3819 2.55874C11.792 2.92376 12 3.45329 12 4.0023C12 5.95293 9.35024 7.06254 7.47794 6.51531C7.00577 6.37731 6.51971 6.29499 6.03197 6.29499C5.51715 6.29499 5.00233 6.3867 4.50251 6.53882C2.62976 7.10876 0 5.99374 0 4.03618Z" fill="#5669FF"/>
<path opacity="0.2" fill-rule="evenodd" clip-rule="evenodd" d="M34 4.03618C34 3.46664 34.2223 2.91819 34.6546 2.54736C35.7193 1.63401 37.9231 0 40.0622 0C42.2103 0 44.3583 1.64765 45.3819 2.55874C45.792 2.92376 46 3.45329 46 4.0023C46 5.95293 43.3502 7.06254 41.4779 6.51531C41.0058 6.37731 40.5197 6.29499 40.032 6.29499C39.5172 6.29499 39.0023 6.3867 38.5025 6.53882C36.6298 7.10876 34 5.99374 34 4.03618Z" fill="#5669FF"/>
</svg>
