<svg width="23" height="23" viewBox="0 0 23 23" fill="none" xmlns="http://www.w3.org/2000/svg">
<path d="M11.4998 21.0833C16.7926 21.0833 21.0832 16.7927 21.0832 11.5C21.0832 6.20728 16.7926 1.91667 11.4998 1.91667C6.20711 1.91667 1.9165 6.20728 1.9165 11.5C1.9165 16.7927 6.20711 21.0833 11.4998 21.0833Z" stroke="#767676" stroke-width="1.5" stroke-linecap="round" stroke-linejoin="round"/>
<path d="M8.71143 8.625C8.93673 7.98451 9.38145 7.44443 9.9668 7.10042C10.5522 6.7564 11.2404 6.63065 11.9096 6.74543C12.5787 6.86021 13.1857 7.20812 13.623 7.72754C14.0602 8.24696 14.2995 8.90437 14.2985 9.58333C14.2985 11.5 11.4235 12.4583 11.4235 12.4583V14.0897" stroke="#767676" stroke-width="1.5" stroke-linecap="round" stroke-linejoin="round"/>
<path d="M11.5 16.2917H11.5104" stroke="#767676" stroke-width="1.5" stroke-linecap="round" stroke-linejoin="round"/>
</svg>
