<svg width="21" height="21" viewBox="0 0 21 21" fill="none" xmlns="http://www.w3.org/2000/svg">
<path d="M17.2694 15.4197L17.7285 15.1877L17.7248 15.1806L17.2694 15.4197ZM14.4459 13.8628L14.548 13.3586L14.5439 13.3579L14.4459 13.8628ZM17.2694 17.3581L17.7248 17.5972L17.7285 17.59L17.2694 17.3581ZM14.4308 18.915L14.3421 18.4081L14.3291 18.4107L14.4308 18.915ZM12.3869 19.1796L12.3569 18.6661L12.3437 18.6669L12.3306 18.6684L12.3869 19.1796ZM9.31365 19.2497L9.24807 19.7599L9.28072 19.7641H9.31365V19.2497ZM8.60967 19.203L8.58325 19.7167L8.59645 19.7174H8.60967V19.203ZM6.56586 18.9461L6.66735 18.4418L6.66276 18.4409L6.56586 18.9461ZM3.74237 17.3892L3.28662 17.6277L3.28696 17.6283L3.74237 17.3892ZM3.50014 16.4083L4.01452 16.4065L4.01449 16.4034L3.50014 16.4083ZM3.7348 15.4197L4.19173 15.6559L4.19202 15.6554L3.7348 15.4197ZM6.56586 13.8628L6.65923 14.3687L6.66493 14.3676L6.56586 13.8628ZM8.61724 13.6059L8.64566 14.1197L8.65856 14.1186L8.61724 13.6059ZM12.4021 13.6059L12.3608 14.1188L12.3721 14.1194L12.4021 13.6059ZM10.5021 11.7149C13.3373 11.7149 15.6112 9.35536 15.6112 6.47529H14.5825C14.5825 8.81453 12.7421 10.6861 10.5021 10.6861V11.7149ZM5.39289 6.47529C5.39289 9.35536 7.66687 11.7149 10.5021 11.7149V10.6861C8.26199 10.6861 6.42165 8.81453 6.42165 6.47529H5.39289ZM10.5021 1.23571C7.66687 1.23571 5.39289 3.59521 5.39289 6.47529H6.42165C6.42165 4.13605 8.26199 2.26446 10.5021 2.26446V1.23571ZM15.6112 6.47529C15.6112 3.59521 13.3373 1.23571 10.5021 1.23571V2.26446C12.7421 2.26446 14.5825 4.13605 14.5825 6.47529H15.6112ZM17.7248 15.1806C17.2001 14.1813 16.0333 13.6594 14.548 13.3587L14.3438 14.367C15.7804 14.6578 16.5212 15.1013 16.814 15.6588L17.7248 15.1806ZM17.7285 17.59C18.1092 16.8366 18.1092 15.9412 17.7285 15.1877L16.8103 15.6517C17.0436 16.1134 17.0436 16.6644 16.8103 17.1261L17.7285 17.59ZM14.5193 19.4217C16.0835 19.1482 17.2029 18.5911 17.7248 17.5972L16.814 17.1189C16.5183 17.6819 15.8059 18.1524 14.3422 18.4083L14.5193 19.4217ZM12.417 19.6931C13.1274 19.6515 13.8342 19.56 14.5324 19.4192L14.3291 18.4107C13.6781 18.542 13.0191 18.6273 12.3569 18.6661L12.417 19.6931ZM10.4718 19.7641C11.1105 19.7641 11.7747 19.7646 12.4433 19.6909L12.3306 18.6684C11.7275 18.7348 11.1199 18.7353 10.4718 18.7353V19.7641ZM9.31365 19.7641H10.4718V18.7353H9.31365V19.7641ZM8.60967 19.7174C8.81326 19.7174 9.02597 19.7313 9.24807 19.7599L9.37923 18.7395C9.11687 18.7058 8.86026 18.6886 8.60967 18.6886V19.7174ZM6.46437 19.4504C7.16353 19.5911 7.87164 19.6801 8.58325 19.7167L8.63609 18.6893C7.97497 18.6553 7.31704 18.5726 6.66735 18.4418L6.46437 19.4504ZM3.28696 17.6283C3.81073 18.6258 4.97387 19.1645 6.46896 19.4513L6.66276 18.4409C5.23595 18.1672 4.49153 17.7095 4.19778 17.1501L3.28696 17.6283ZM2.98577 16.4102C2.9873 16.8346 3.09036 17.2526 3.28662 17.6277L4.19812 17.1507C4.07878 16.9227 4.01546 16.667 4.01451 16.4065L2.98577 16.4102ZM3.27787 15.1835C3.08184 15.5627 2.9817 15.9854 2.98579 16.4133L4.01449 16.4034C4.012 16.1422 4.07321 15.8852 4.19173 15.6559L3.27787 15.1835ZM6.47249 13.357C4.95936 13.6363 3.79349 14.183 3.27757 15.1841L4.19202 15.6554C4.4785 15.0995 5.22018 14.6343 6.65922 14.3686L6.47249 13.357ZM8.58882 13.0923C7.87644 13.1317 7.16748 13.2205 6.46678 13.3581L6.66493 14.3676C7.31903 14.2392 7.98077 14.1563 8.64566 14.1195L8.58882 13.0923ZM12.4434 13.0932C11.1562 12.9895 9.8631 12.9895 8.57592 13.0932L8.65856 14.1186C9.89074 14.0193 11.1286 14.0193 12.3608 14.1186L12.4434 13.0932ZM14.5439 13.3579C13.8463 13.2224 13.1409 13.1337 12.432 13.0924L12.3721 14.1194C13.0352 14.1581 13.6952 14.241 14.3478 14.3678L14.5439 13.3579Z" fill="black"/>
</svg>
