<svg width="17" height="22" viewBox="0 0 17 22" fill="none" xmlns="http://www.w3.org/2000/svg">
<path d="M5.99183 6.08719C5.7913 5.92657 5.49753 5.9588 5.33724 6.15983L4.18203 7.6037L3.75865 6.96889C3.61543 6.75473 3.32624 6.69642 3.11241 6.83982C2.89825 6.98253 2.84027 7.27206 2.98316 7.48606L3.50169 8.26344C3.65293 8.49021 3.88448 8.62662 4.1375 8.63736C4.14824 8.63788 4.15933 8.63839 4.17024 8.63839C4.41151 8.63839 4.64001 8.52295 4.80317 8.3197L6.06528 6.74213C6.22574 6.54075 6.19317 6.24765 5.99179 6.08719L5.99183 6.08719Z" fill="#D2CFD6"/>
<path d="M12.2251 7.24786H7.33139C7.07426 7.24786 6.86572 7.4564 6.86572 7.71405C6.86572 7.97118 7.07391 8.17989 7.33139 8.17989H12.2251C12.4829 8.17989 12.6912 7.97084 12.6912 7.71405C12.6912 7.45658 12.4831 7.24786 12.2251 7.24786Z" fill="#D2CFD6"/>
<path d="M5.99183 9.23264C5.7913 9.07201 5.49753 9.10424 5.33724 9.30527L4.18203 10.7491L3.75865 10.1145C3.61543 9.90069 3.32624 9.84221 3.11241 9.98544C2.89825 10.128 2.84027 10.4177 2.98316 10.6317L3.50169 11.4091C3.65293 11.6358 3.88448 11.7721 4.1375 11.7833C4.14824 11.7833 4.15933 11.7838 4.17024 11.7838C4.41151 11.7838 4.64001 11.6693 4.80317 11.4648L6.06528 9.88741C6.22574 9.68689 6.19317 9.39329 5.99179 9.23265L5.99183 9.23264Z" fill="#D2CFD6"/>
<path d="M12.2251 10.3929H7.33139C7.07426 10.3929 6.86572 10.6016 6.86572 10.8587C6.86572 11.1162 7.07391 11.3244 7.33139 11.3244H12.2251C12.4829 11.3244 12.6912 11.1164 12.6912 10.8587C12.6912 10.6018 12.4831 10.3929 12.2251 10.3929Z" fill="#D2CFD6"/>
<path d="M5.99183 12.379C5.7913 12.2177 5.49753 12.2501 5.33724 12.4516L4.18203 13.8953L3.75865 13.26C3.61543 13.0463 3.32624 12.9882 3.11241 13.1311C2.89825 13.2741 2.84027 13.5635 2.98316 13.7778L3.50169 14.5548C3.65293 14.7814 3.88448 14.9179 4.1375 14.9291C4.14824 14.9293 4.15933 14.9296 4.17024 14.9296C4.41151 14.9296 4.64001 14.8147 4.80317 14.6113L6.06528 13.0334C6.22574 12.8327 6.19317 12.5391 5.99179 12.379L5.99183 12.379Z" fill="#D2CFD6"/>
<path d="M12.2251 13.5388H7.33139C7.07426 13.5388 6.86572 13.7469 6.86572 14.0049C6.86572 14.2621 7.07391 14.4708 7.33139 14.4708H12.2251C12.4829 14.4708 12.6912 14.2623 12.6912 14.0049C12.6912 13.7475 12.4831 13.5388 12.2251 13.5388Z" fill="#D2CFD6"/>
<path d="M5.99183 15.5244C5.7913 15.3633 5.49753 15.3959 5.33724 15.5972L4.18203 17.0406L3.75865 16.4058C3.61543 16.1916 3.32624 16.1335 3.11241 16.2765C2.89825 16.4198 2.84027 16.7088 2.98316 16.9231L3.50169 17.7006C3.65293 17.9274 3.88448 18.0636 4.1375 18.0745C4.14824 18.075 4.15933 18.075 4.17024 18.075C4.41151 18.075 4.64001 17.9604 4.80317 17.757L6.06528 16.1791C6.22574 15.9779 6.19317 15.6847 5.99179 15.5244L5.99183 15.5244Z" fill="#D2CFD6"/>
<path d="M12.2251 16.6842H7.33139C7.07426 16.6842 6.86572 16.8929 6.86572 17.1504C6.86572 17.4079 7.07391 17.6163 7.33139 17.6163H12.2251C12.4829 17.6163 12.6912 17.4076 12.6912 17.1504C12.6912 16.8931 12.4831 16.6842 12.2251 16.6842Z" fill="#D2CFD6"/>
<path d="M14.0287 2.76816H11.8907V3.98033H14.0289C14.4899 3.98033 14.8644 4.35511 14.8644 4.81585V19.9526C14.8644 20.4131 14.4899 20.7881 14.0289 20.7881H2.04765C1.58692 20.7881 1.21213 20.4131 1.21213 19.9526V4.81585C1.21213 4.35512 1.58691 3.98033 2.04765 3.98033H4.18583V2.76816H2.04765C0.918539 2.76816 0 3.6867 0 4.81581V19.9525C0 21.0813 0.918539 22 2.04765 22H14.0289C15.158 22 16.0765 21.0815 16.0765 19.9525L16.0767 4.81581C16.0767 3.68687 15.1578 2.76816 14.0287 2.76816Z" fill="#D2CFD6"/>
<path d="M5.65381 4.62882H10.4218C10.974 4.62882 11.4249 4.17712 11.4249 3.6252V3.1234C11.4249 2.57143 10.9737 2.11978 10.4218 2.11978H9.50969V1.47218C9.50969 1.06637 9.34498 0.698562 9.07796 0.431901C8.81162 0.165222 8.4435 0 8.03768 0C7.63186 0 7.26375 0.165226 6.9974 0.43173C6.73072 0.698409 6.56566 1.06637 6.56566 1.47201V2.11961H5.65359C5.10162 2.11961 4.65015 2.57131 4.65015 3.12323V3.62503C4.65015 4.1773 5.10184 4.62882 5.65359 4.62882L5.65381 4.62882ZM8.03788 0.694459C8.38401 0.694459 8.66518 0.975289 8.66518 1.32176C8.66518 1.66841 8.38401 1.94906 8.03788 1.94906C7.69175 1.94906 7.41057 1.6684 7.41057 1.32176C7.41057 0.975285 7.69175 0.694459 8.03788 0.694459Z" fill="#D2CFD6"/>
</svg>
