<svg width="20" height="20" viewBox="0 0 20 20" fill="none" xmlns="http://www.w3.org/2000/svg">
<path d="M9.99987 0.000255124C7.3477 0.000255124 4.80429 1.0537 2.92887 2.92912C1.05344 4.80455 0 7.34791 0 10.0001C0 12.6523 1.05344 15.1957 2.92887 17.0711C4.80429 18.9466 7.34766 20 9.99987 20C12.6521 20 15.1954 18.9466 17.0709 17.0711C18.9463 15.1957 19.9997 12.6523 19.9997 10.0001C19.9972 7.34881 18.9428 4.80667 17.0681 2.93167C15.1932 1.05693 12.651 0.00246599 9.99961 0L9.99987 0.000255124ZM4.76178 11.4288C4.38294 11.4288 4.01956 11.2782 3.75166 11.0103C3.4836 10.7424 3.33313 10.379 3.33313 10.0002C3.33313 9.62135 3.4836 9.25796 3.75166 8.99006C4.01955 8.72217 4.38295 8.57153 4.76178 8.57153C5.14061 8.57153 5.504 8.72217 5.77189 8.99006C6.03979 9.25795 6.19025 9.62135 6.19025 10.0002C6.19025 10.379 6.03978 10.7424 5.77189 11.0103C5.504 11.2782 5.1406 11.4288 4.76178 11.4288ZM9.99987 11.4288C9.62103 11.4288 9.25765 11.2782 8.98975 11.0103C8.72186 10.7424 8.57122 10.379 8.57122 10.0002C8.57122 9.62135 8.72186 9.25796 8.98975 8.99006C9.25764 8.72217 9.62104 8.57153 9.99987 8.57153C10.3787 8.57153 10.7421 8.72217 11.01 8.99006C11.2779 9.25795 11.4285 9.62135 11.4285 10.0002C11.4285 10.379 11.2779 10.7424 11.01 11.0103C10.7421 11.2782 10.3787 11.4288 9.99987 11.4288ZM15.238 11.4288C14.8591 11.4288 14.4957 11.2782 14.2278 11.0103C13.96 10.7424 13.8095 10.379 13.8095 10.0002C13.8095 9.62135 13.96 9.25796 14.2278 8.99006C14.4957 8.72217 14.8591 8.57153 15.238 8.57153C15.6168 8.57153 15.9802 8.72217 16.2481 8.99006C16.5161 9.25795 16.6666 9.62135 16.6666 10.0002C16.6666 10.379 16.5161 10.7424 16.2481 11.0103C15.9802 11.2782 15.6168 11.4288 15.238 11.4288Z" fill="#3D50DF"/>
</svg>
