<svg width="23" height="23" viewBox="0 0 23 23" fill="none" xmlns="http://www.w3.org/2000/svg">
<g clip-path="url(#clip0_1204_127)">
<path d="M10.5417 1.91657C15.3027 1.91657 19.1667 5.78058 19.1667 10.5416C19.1667 15.3026 15.3027 19.1666 10.5417 19.1666C5.78067 19.1666 1.91667 15.3026 1.91667 10.5416C1.91667 5.78058 5.78067 1.91657 10.5417 1.91657ZM10.5417 17.2499C14.2475 17.2499 17.25 14.2475 17.25 10.5416C17.25 6.83474 14.2475 3.83324 10.5417 3.83324C6.83484 3.83324 3.83333 6.83474 3.83333 10.5416C3.83333 14.2475 6.83484 17.2499 10.5417 17.2499ZM18.6731 17.318L21.3843 20.0281L20.0282 21.3842L17.318 18.673L18.6731 17.318Z" fill="black"/>
</g>
<defs>
<clipPath id="clip0_1204_127">
<rect width="22.9581" height="22.9581" fill="white" transform="scale(1.00182)"/>
</clipPath>
</defs>
</svg>
