<svg width="21" height="13" viewBox="0 0 21 13" fill="none" xmlns="http://www.w3.org/2000/svg">
<path fill-rule="evenodd" clip-rule="evenodd" d="M0 11.8455C0 11.2504 0.482089 10.7683 1.07714 10.7683V10.7678H1.34642V1.07613H1.07714C0.780117 1.07613 0.539072 0.835083 0.539072 0.538064C0.539072 0.241045 0.779613 0 1.07714 0H19.922C20.219 0 20.46 0.241045 20.46 0.538064C20.46 0.835083 20.22 1.07613 19.922 1.07613H19.6532V10.7683H19.922C20.517 10.7683 20.9991 11.2504 20.9991 11.8455C20.9991 12.4405 20.517 12.9231 19.922 12.9231H1.07714C0.482089 12.9231 0 12.4405 0 11.8455ZM17.4986 10.7678V1.07614H14.2682V10.7678H17.4986ZM12.1141 1.07614V10.7678H8.88368V1.07614H12.1141ZM6.72959 1.07614H3.49919V10.7678H6.72959V1.07614Z" fill="#5669FF"/>
</svg>
