<svg width="11" height="10" viewBox="0 0 11 10" fill="none" xmlns="http://www.w3.org/2000/svg">
<path d="M5.67667 0.165226L7.06103 3.30105L10.5744 3.60524C10.6299 3.60964 10.6828 3.62987 10.7264 3.66338C10.77 3.69688 10.8025 3.74216 10.8196 3.79351C10.8368 3.84486 10.8379 3.89998 10.8228 3.95193C10.8077 4.00388 10.777 4.05033 10.7348 4.08544L8.0753 6.33263L8.85957 9.66498C8.86776 9.7 8.86873 9.73623 8.86244 9.77162C8.85615 9.807 8.8427 9.84082 8.82289 9.87115C8.80307 9.90148 8.77728 9.92772 8.74697 9.94835C8.71667 9.96898 8.68246 9.98361 8.64632 9.99138C8.57154 10.0067 8.49356 9.99253 8.42954 9.95208L5.41143 8.20559L2.38538 9.96062C2.35377 9.97921 2.31868 9.99155 2.28212 9.99693C2.24557 10.0023 2.20828 10.0006 2.1724 9.99196C2.13653 9.98331 2.10277 9.96785 2.07308 9.94649C2.04339 9.92512 2.01836 9.89828 1.99942 9.86749C1.98045 9.83734 1.9678 9.80386 1.96221 9.76896C1.95661 9.73406 1.95818 9.69844 1.96681 9.66413L2.75196 6.33178L0.0960219 4.08544C0.0401956 4.03741 0.00598392 3.97009 0.000713373 3.89791C-0.00455717 3.82572 0.0195325 3.7544 0.0678235 3.69922C0.121046 3.64635 0.193444 3.61569 0.269619 3.61378L3.76975 3.3096L5.15412 0.165226C5.17645 0.116081 5.21303 0.0742937 5.25943 0.0449569C5.30582 0.01562 5.36001 0 5.41539 0C5.47078 0 5.52497 0.01562 5.57136 0.0449569C5.61775 0.0742937 5.65434 0.116081 5.67667 0.165226Z" fill="#FFD401"/>
</svg>
