<svg width="27" height="27" viewBox="0 0 27 27" fill="none" xmlns="http://www.w3.org/2000/svg">
<g clip-path="url(#clip0_342_154)">
<path d="M3.11406 21.0588C2.21185 21.0588 1.33043 20.8286 0.531609 20.38C0.120604 20.1684 -0.0385858 19.6388 0.206948 19.2404C1.02274 17.9369 1.31733 16.3434 0.943818 14.8448C0.556671 13.2912 -0.00350001 11.9827 0.000509804 10.338C0.0144105 4.56781 4.81716 -0.110034 10.5815 0.00190699C16.1491 0.114048 20.7376 4.7943 20.7377 10.3634C20.7377 17.6367 13.1152 22.7432 6.38587 19.9345C5.45833 20.6626 4.29248 21.0588 3.11406 21.0588ZM2.01778 19.283C3.28541 19.6767 4.7111 19.3622 5.68863 18.4172C5.92948 18.1843 6.28977 18.1257 6.59197 18.2702C12.3532 21.0247 19.1337 16.7072 19.1337 10.3634C19.1337 5.62954 15.2826 1.7008 10.5492 1.6055C5.67112 1.50859 1.6162 5.45933 1.60443 10.3419C1.60062 11.904 2.21012 13.1525 2.5432 14.6323C2.89412 16.1918 2.70927 17.8409 2.01778 19.283Z" fill="#767676"/>
<path d="M23.8862 27C22.7078 27 21.5419 26.6037 20.6145 25.8758C17.0358 27.3694 12.7788 26.6892 9.8445 24.1551C9.50928 23.8656 9.47226 23.3593 9.7617 23.024C10.0512 22.6888 10.5576 22.6517 10.8928 22.9412C13.4953 25.1887 17.3067 25.6943 20.4084 24.2115C20.7105 24.0668 21.0707 24.1255 21.3117 24.3584C22.2892 25.3034 23.7149 25.6181 24.9825 25.2242C24.1668 23.5228 24.0538 21.5735 24.686 19.769C24.6916 19.7528 24.6978 19.7368 24.7045 19.7209C25.1662 18.6326 25.3988 17.4759 25.396 16.2831C25.3909 14.1801 24.6913 12.2347 23.3727 10.6572C23.0887 10.3173 23.134 9.81157 23.4738 9.52754C23.8136 9.24345 24.3194 9.28876 24.6034 9.62859C26.1429 11.4705 26.994 13.8323 26.9999 16.2792C27.0033 17.6807 26.7314 19.0408 26.1917 20.3224C25.6249 21.9632 25.8856 23.7201 26.7933 25.1815C27.039 25.58 26.8797 26.1096 26.4686 26.3214C25.6699 26.7697 24.7883 27 23.8862 27Z" fill="#767676"/>
<path d="M10.3683 11.6718C11.0691 11.6718 11.6373 11.1039 11.6373 10.4034C11.6373 9.70298 11.0691 9.13514 10.3683 9.13514C9.66744 9.13514 9.09931 9.70298 9.09931 10.4034C9.09931 11.1039 9.66744 11.6718 10.3683 11.6718Z" fill="#767676"/>
<path d="M5.69384 11.6718C6.39467 11.6718 6.96281 11.1039 6.96281 10.4034C6.96281 9.70298 6.39467 9.13514 5.69384 9.13514C4.99301 9.13514 4.42487 9.70298 4.42487 10.4034C4.42487 11.1039 4.99301 11.6718 5.69384 11.6718Z" fill="#767676"/>
<path d="M15.0437 11.6718C15.7445 11.6718 16.3127 11.1039 16.3127 10.4034C16.3127 9.70298 15.7445 9.13514 15.0437 9.13514C14.3429 9.13514 13.7747 9.70298 13.7747 10.4034C13.7747 11.1039 14.3429 11.6718 15.0437 11.6718Z" fill="#767676"/>
</g>
<defs>
<clipPath id="clip0_342_154">
<rect width="26.9937" height="26.9937" fill="white"/>
</clipPath>
</defs>
</svg>
