<svg width="25" height="25" viewBox="0 0 25 25" fill="none" xmlns="http://www.w3.org/2000/svg">
<path d="M24.6573 7.36265C24.362 7.11055 23.9452 7.05742 23.596 7.22744L18.252 9.829L13.2378 4.04766C13.0523 3.83379 12.7831 3.71094 12.5 3.71094C12.2169 3.71094 11.9478 3.83379 11.7623 4.04766L6.74801 9.82895L1.40406 7.22739C1.0548 7.05742 0.638097 7.1105 0.342687 7.3626C0.0472764 7.6147 -0.0706924 8.01792 0.0422471 8.3895L3.75318 20.5965C3.87823 21.0079 4.25758 21.2891 4.68751 21.2891H20.3125C20.7424 21.2891 21.1218 21.0079 21.2468 20.5966L24.9577 8.38955C25.0707 8.01797 24.9527 7.61475 24.6573 7.36265ZM19.5886 19.3359H5.41129L2.56212 9.96348L6.5671 11.9132C6.96476 12.1068 7.44259 12.009 7.73229 11.675L12.5 6.17798L17.2678 11.675C17.5574 12.0091 18.0354 12.1067 18.4329 11.9132L22.4379 9.96348L19.5886 19.3359Z" fill="#767676"/>
</svg>
