<svg width="17" height="20" viewBox="0 0 17 20" fill="none" xmlns="http://www.w3.org/2000/svg">
<path d="M16.7934 4.31503L16.204 2.84164C16.0146 2.37857 15.8672 1.87332 15.7619 1.36825C15.6145 0.568356 14.92 0.00014679 14.1201 0.00014679L2.87996 0C2.08006 0 1.3854 0.568359 1.23814 1.36811C1.15401 1.87332 1.00659 2.35741 0.796034 2.8415L0.206664 4.31503C-0.0458786 4.92538 -0.0670179 5.59902 0.143528 6.16738C0.332935 6.67259 0.648741 7.09357 1.06972 7.38822V19.3861C1.06972 19.7229 1.3434 19.9755 1.65909 19.9755H15.3409C15.6777 19.9755 15.9303 19.7018 15.9303 19.3861V7.38822C16.3512 7.09354 16.6671 6.67259 16.8565 6.16738C17.067 5.59902 17.0459 4.94654 16.7933 4.31503L16.7934 4.31503ZM1.30136 4.77811L1.9117 3.28356C2.14325 2.73632 2.31167 2.16796 2.41692 1.57863C2.45906 1.34708 2.64846 1.19982 2.87999 1.19982H14.1201C14.3517 1.19982 14.5411 1.36823 14.5832 1.57863C14.6885 2.168 14.8569 2.73636 15.0884 3.28356L15.6988 4.77811C15.8462 5.11493 15.8672 5.49373 15.7409 5.78842C15.5515 6.33566 15.0463 6.69345 14.4569 6.69345C14.0781 6.69345 13.6992 6.52504 13.4466 6.23037C13.3413 6.1041 13.1729 6.01982 13.0045 6.01982C12.8361 6.01982 12.6677 6.10396 12.5624 6.23037C12.3099 6.52505 11.9309 6.69345 11.5521 6.69345H11.4468C11.068 6.69345 10.71 6.52504 10.4575 6.25135C10.3522 6.12508 10.1838 6.06194 10.0154 6.06194C9.826 6.06194 9.69974 6.12508 9.57331 6.25135C9.32077 6.52503 8.96296 6.69345 8.58401 6.69345H8.43659C8.05779 6.69345 7.6998 6.54604 7.44729 6.25135C7.34202 6.12508 7.17361 6.08294 7.00519 6.06194C6.83678 6.06194 6.68951 6.12508 6.56309 6.25135C6.31054 6.52503 5.95274 6.69345 5.57378 6.69345H5.46851C5.06854 6.69345 4.71075 6.52504 4.4582 6.23037C4.35292 6.1041 4.18452 6.01982 4.0161 6.01982C3.84767 6.01982 3.67928 6.10396 3.57399 6.23037C3.32145 6.52505 2.94249 6.69345 2.56368 6.69345C1.97431 6.69345 1.4691 6.33564 1.27969 5.78842C1.15386 5.47275 1.17501 5.11478 1.30128 4.77811H1.30136ZM2.24852 18.7967V16.4604H14.7516V18.7969L2.24852 18.7967ZM8.50006 12.3347C7.88972 12.3347 7.38447 11.8295 7.38447 11.2191C7.38447 10.6087 7.88968 10.1035 8.50006 10.1035C9.11045 10.1035 9.61566 10.6087 9.61566 11.2191C9.61566 11.8295 9.11045 12.3347 8.50006 12.3347ZM7.44762 13.2609C7.76329 13.4293 8.12126 13.5134 8.50006 13.5134C8.87887 13.5134 9.23685 13.4293 9.55251 13.2609C9.97345 13.5765 10.2681 14.0818 10.2681 14.6712V15.2605H6.73199V14.6712C6.73199 14.1028 7.02667 13.5977 7.44762 13.2609ZM14.7516 15.2815H11.468V14.6921C11.468 13.8081 11.068 13.0082 10.4577 12.461C10.6681 12.1032 10.8155 11.6822 10.8155 11.2191C10.8155 9.95611 9.78407 8.90366 8.50004 8.90366C7.23703 8.90366 6.18459 9.9351 6.18459 11.2191C6.18459 11.6822 6.31085 12.1032 6.5424 12.461C5.93205 13.0082 5.53208 13.7871 5.53208 14.6712V15.2605H2.24849V7.87234C2.35376 7.89334 2.43789 7.89334 2.54316 7.89334C3.06939 7.89334 3.5746 7.72493 4.01655 7.43026C4.4375 7.72494 4.94274 7.89334 5.46897 7.89334H5.57424C6.07946 7.89334 6.58456 7.74592 7.0055 7.45123C7.42644 7.72492 7.93169 7.89334 8.43675 7.89334H8.58416C9.08938 7.89334 9.59448 7.74592 10.0154 7.45123C10.4364 7.72492 10.9204 7.89334 11.4467 7.89334H11.5519C12.0782 7.89334 12.5834 7.72493 13.0044 7.43026C13.4253 7.72494 13.9306 7.89334 14.4778 7.89334C14.583 7.89334 14.6672 7.87234 14.7724 7.87234L14.7726 15.2816L14.7516 15.2815Z" fill="#D2CFD6"/>
</svg>
