<svg width="12" height="12" viewBox="0 0 12 12" fill="none" xmlns="http://www.w3.org/2000/svg">
<path fill-rule="evenodd" clip-rule="evenodd" d="M9.85839 0.7497C10.2247 0.749877 10.5759 0.894044 10.8348 1.15059C11.0937 1.40713 11.239 1.75492 11.2389 2.11745C11.2387 2.48008 11.093 2.82769 10.8338 3.08396C10.5746 3.34022 10.2232 3.48403 9.85688 3.48378C9.49061 3.4836 9.13934 3.33935 8.88052 3.08282C8.6217 2.82619 8.4764 2.4784 8.47658 2.11578C8.47729 1.75343 8.62312 1.40607 8.88212 1.14998C9.14121 0.8938 9.4923 0.749881 9.85839 0.7497ZM2.14167 7.36605C1.77513 7.36605 1.42367 7.22197 1.16458 6.96543C0.905398 6.70889 0.759837 6.36101 0.759837 5.9983C0.759837 5.63558 0.9054 5.2877 1.16458 5.03116C1.42367 4.77462 1.77513 4.63054 2.14167 4.63054C2.50812 4.63054 2.85958 4.77462 3.11876 5.03116C3.37785 5.2877 3.52351 5.63558 3.52351 5.9983C3.52297 6.36092 3.37723 6.70844 3.11824 6.96489C2.85915 7.22125 2.50794 7.36553 2.14167 7.36605ZM9.85885 8.51119C10.2254 8.5111 10.5769 8.65518 10.836 8.91171C11.0952 9.16825 11.2408 9.51613 11.2408 9.87894C11.2409 10.2417 11.0953 10.5897 10.8362 10.8462C10.577 11.1028 10.2255 11.2469 9.85894 11.2469C9.49249 11.2469 9.14094 11.1028 8.88176 10.8462C8.62257 10.5897 8.47692 10.2418 8.47692 9.87901C8.47755 9.51647 8.62329 9.16895 8.88219 8.91259C9.14119 8.65615 9.49258 8.5118 9.85885 8.51119ZM9.85885 4.23386C10.4622 4.23369 11.0375 3.98121 11.4427 3.53864C11.848 3.09617 12.0455 2.50482 11.9867 1.91039C11.9278 1.31597 11.6179 0.77383 11.1336 0.41765C10.6492 0.0614699 10.0354 -0.0756197 9.44339 0.0401896C8.8515 0.156001 8.33646 0.513943 8.02543 1.02578C7.71441 1.53752 7.63632 2.15563 7.81035 2.72744L3.84632 4.72105C3.48343 4.24605 2.93528 3.94419 2.33615 3.88951C1.73702 3.83483 1.14237 4.03226 0.697829 4.43359C0.253287 4.83491 0 5.40292 0 5.99841C0 6.5939 0.253287 7.16191 0.697829 7.56323C1.14237 7.96455 1.73702 8.16199 2.33615 8.10731C2.93528 8.05263 3.48343 7.75077 3.84632 7.27577L7.81012 9.26975C7.7497 9.46736 7.71908 9.67265 7.71935 9.8791C7.71855 10.5549 8.04351 11.1905 8.59416 11.59C9.14473 11.9896 9.85488 12.1051 10.5058 11.9012C11.1566 11.6971 11.6701 11.198 11.888 10.5576C12.106 9.91718 12.0021 9.21233 11.6085 8.66013C11.2149 8.10801 10.5788 7.77481 9.89621 7.76323C9.21355 7.75175 8.56633 8.06324 8.15391 8.60174L4.19034 6.60776C4.31118 6.21033 4.31118 5.78649 4.19034 5.38904L8.15391 3.39506C8.55829 3.92323 9.18942 4.23368 9.85885 4.23386Z" fill="black"/>
</svg>
