<svg width="17" height="14" viewBox="0 0 17 14" fill="none" xmlns="http://www.w3.org/2000/svg">
<path d="M1.20134 13.93L16.1752 7.75824C16.33 7.69484 16.462 7.58908 16.5548 7.45411C16.6476 7.31915 16.697 7.16094 16.697 6.99915C16.697 6.83737 16.6476 6.67916 16.5548 6.5442C16.462 6.40923 16.33 6.30347 16.1752 6.24006L1.20134 0.0683291C1.07168 0.0139506 0.929987 -0.00853467 0.789032 0.00290142C0.648078 0.0143375 0.512302 0.0593351 0.393953 0.133835C0.275605 0.208335 0.178407 0.309994 0.111128 0.42964C0.0438498 0.549285 0.00860762 0.683154 0.00858101 0.819169L0 4.62287C0 5.03542 0.317498 5.39021 0.746549 5.43972L12.8715 6.99915L0.746549 8.55034C0.317498 8.6081 0 8.96289 0 9.37544L0.00858101 13.1791C0.00858101 13.765 0.634996 14.1693 1.20134 13.93Z" fill="white"/>
</svg>
