<svg width="22" height="23" viewBox="0 0 22 23" fill="none" xmlns="http://www.w3.org/2000/svg">
<path d="M0 16.6972V16.7273V16.7573V16.7874V16.8175C0 16.8475 0.0300554 16.8475 0.0300554 16.8778L0.0601101 16.9078C0.0901653 16.9379 0.0901658 16.9379 0.120432 16.9379H0.150487L13.7396 22.3615C13.7697 22.3615 13.7999 22.3915 13.86 22.3915C13.8901 22.3915 13.9504 22.3915 13.9805 22.3615C14.0408 22.3314 14.1009 22.2711 14.1312 22.2108L15.5774 18.5648L21.7543 17.1487C21.905 17.1186 22.0254 16.9376 21.9954 16.7871L18.1991 0.245705C18.1691 0.0950067 17.9881 -0.0254262 17.8376 0.0046296L6.65897 2.56588C6.5686 2.59594 6.50827 2.6262 6.47822 2.68631C6.44816 2.74664 6.4179 2.83701 6.44816 2.92739L7.68359 8.29073L4.18833 6.90459C4.15828 6.90459 4.09795 6.87453 4.0679 6.87453C3.97752 6.87453 3.9172 6.90459 3.85688 6.96491C3.82682 6.99496 3.79656 7.02523 3.79656 7.05529L9.03108e-05 16.5466V16.5766V16.637V16.6971L0 16.6972ZM4.06759 7.98934L6.99031 14.799L0.783301 16.2454L4.06759 7.98934ZM16.8432 12.6296L9.49119 15.7935C9.15974 15.9442 8.82831 15.9442 8.49686 15.7935C8.16541 15.673 7.92432 15.432 7.8039 15.1005L4.64008 7.74851L16.8432 12.6296ZM13.7094 21.669L1.29542 16.7275L7.23125 15.3413C7.44227 15.7932 7.80379 16.1549 8.25565 16.3657C8.49673 16.4561 8.70753 16.5164 8.94862 16.5164C9.18969 16.5164 9.46082 16.4561 9.70189 16.3657L17.084 13.1719L14.4023 19.8911L13.7094 21.669ZM7.11073 3.10821L17.6867 0.69767L21.3327 16.637L15.879 17.9025L16.8733 15.3716L18.7716 14.9497C18.9223 14.9197 19.0428 14.7387 19.0127 14.5882C18.9826 14.4375 18.8017 14.3171 18.6512 14.3472L17.1442 14.6786L17.8975 12.8105L18.259 12.7202C18.4097 12.6901 18.5301 12.5091 18.5001 12.3587C18.47 12.208 18.289 12.0875 18.1386 12.1176L17.566 12.238L14.8543 11.1533L17.747 10.4904C17.8977 10.4604 18.0181 10.2794 17.9881 10.1289C17.958 9.9782 17.7771 9.85777 17.6266 9.88782L13.8903 10.7315L11.1786 9.64677L17.2651 8.26064C17.4158 8.23058 17.5362 8.04961 17.5061 7.89913C17.4761 7.74843 17.2951 7.628 17.1446 7.65805L10.2145 9.255L8.37648 8.5318L7.11073 3.10821Z" fill="#D2CFD6"/>
<path d="M13.9205 6.48279L14.0409 6.12128V6.09123H14.0109L13.6794 6.21166L13.378 6.00064H13.348L13.3179 6.0307V6.3922L13.0165 6.60323C13.0165 6.60323 12.9865 6.63328 13.0165 6.63328C13.0165 6.63328 13.0165 6.66334 13.0466 6.66334L13.4081 6.75371L13.5285 7.08517L13.5586 7.11522C13.5586 7.11522 13.5886 7.11522 13.5886 7.08517L13.7997 6.78377H14.1612C14.1612 6.78377 14.1912 6.78377 14.1912 6.75371V6.72366L13.9205 6.48279Z" fill="#D2CFD6"/>
<path d="M13.4986 4.40375L13.8301 4.85563H13.8601C13.8601 4.85563 13.8902 4.85563 13.8902 4.82557L14.0409 4.28332L14.5831 4.10257L14.6132 4.07251C14.6132 4.07251 14.6132 4.04245 14.5831 4.04245L14.101 3.74106V3.16851C14.101 3.16851 14.101 3.13846 14.0709 3.13846H14.0409L13.589 3.49997L13.0467 3.31921H13.0167V3.34927L13.2277 3.89152L12.8962 4.3434V4.37346L12.9263 4.40351L13.4986 4.40375Z" fill="#D2CFD6"/>
<path d="M10.6966 5.6391L10.5159 6.39238V6.42243H10.5459L11.2389 6.09098L11.9018 6.48275H11.9318H11.9619L11.9919 6.45269L11.932 5.69942L12.5046 5.18721C12.5046 5.18721 12.5346 5.15716 12.5046 5.15716C12.4745 5.15716 12.4745 5.1271 12.4745 5.1271L11.7212 4.9764L11.4198 4.28344L11.3898 4.25339C11.3898 4.25339 11.3597 4.25339 11.3597 4.28344L10.9982 4.94633L10.2149 5.00665C10.2149 5.00665 10.1848 5.00665 10.1848 5.0367V5.06676L10.6966 5.6391Z" fill="#D2CFD6"/>
<path d="M9.67216 13.2623C9.67216 13.2623 9.67216 13.2322 9.64211 13.2322H9.61205L9.40103 13.3829L9.15996 13.2926H9.1299V13.3226L9.22028 13.5637L9.06958 13.7747V13.8048L9.09964 13.8348H9.37077L9.52147 14.0458L9.55152 14.0759C9.55152 14.0759 9.58158 14.0759 9.58158 14.0458L9.6419 13.8048L9.88297 13.7144L9.91303 13.6843C9.91303 13.6843 9.91303 13.6543 9.88297 13.6543L9.67195 13.5036L9.67216 13.2623Z" fill="#D2CFD6"/>
<path d="M10.6363 12.6898L10.5159 13.0816V13.1116H10.546L10.9377 12.9609L11.2692 13.202H11.2992H11.3293L11.3593 13.1719V12.7802L11.6908 12.5391C11.6908 12.5391 11.7209 12.509 11.6908 12.509C11.6607 12.509 11.6908 12.479 11.6607 12.479L11.269 12.3586L11.1183 11.9668L11.0882 11.9367C11.0882 11.9367 11.0582 11.9367 11.0582 11.9668L10.8171 12.2982H10.4253C10.4253 12.2982 10.3953 12.2982 10.3953 12.3283V12.3584L10.6363 12.6898Z" fill="#D2CFD6"/>
<path d="M8.70804 12.1173L8.76836 12.6596C8.76836 12.6596 8.76836 12.6896 8.79842 12.6896H8.82847L9.2503 12.3281L9.79255 12.4486H9.82261V12.4185L9.58153 11.9063L9.85266 11.4241V11.3941L9.82261 11.364L9.28035 11.4244L8.91885 11.0023H8.88879C8.88879 11.0023 8.85873 11.0023 8.85873 11.0324L8.7383 11.5746L8.2261 11.7856L8.19604 11.8157C8.19604 11.8157 8.19605 11.8458 8.2261 11.8458L8.70804 12.1173Z" fill="#D2CFD6"/>
</svg>
