<svg width="21" height="22" viewBox="0 0 21 22" fill="none" xmlns="http://www.w3.org/2000/svg">
<mask id="path-1-inside-1_262_1166" fill="white">
<path d="M13.5628 19.4416C13.4946 19.8005 13.3744 20.13 13.2013 20.43C13.0224 20.7396 12.7883 21.0171 12.4991 21.2622C12.2099 21.5069 11.8943 21.6913 11.5542 21.8147C11.2132 21.9381 10.8505 22 10.4674 22C10.0841 22 9.72153 21.9381 9.38044 21.8147C9.04006 21.6915 8.72491 21.5069 8.43569 21.2622C8.14629 21.0171 7.91216 20.7394 7.73329 20.43C7.55479 20.1207 7.43245 19.7801 7.36591 19.4084C7.33354 19.2267 7.45445 19.0527 7.63599 19.0201C7.64172 19.0192 7.69484 19.014 7.69484 19.0137H13.2398C13.4252 19.0137 13.5755 19.1641 13.5755 19.3494C13.5753 19.3814 13.5712 19.4122 13.5628 19.4416ZM12.2338 1.22973C12.5059 1.30081 12.7701 1.3871 13.0262 1.48826C13.4034 1.63722 13.7658 1.81697 14.113 2.02663C14.1266 2.03504 14.1398 2.04399 14.1528 2.05312C14.4857 2.25794 14.7953 2.48299 15.081 2.72845C15.3797 2.98519 15.6582 3.26896 15.9163 3.57959L15.9184 3.58192H15.9188C16.171 3.88772 16.3967 4.2141 16.5961 4.55982C16.7963 4.90733 16.9674 5.26917 17.1089 5.64407L17.1096 5.64389C17.2559 6.02954 17.3654 6.42485 17.4377 6.82947C17.5103 7.23607 17.5462 7.65287 17.5462 8.07987C17.5462 8.92385 17.5462 9.37914 17.5466 9.43446C17.5484 9.8672 17.5507 10.2901 17.5539 10.7029V10.7072C17.5553 11.0802 17.5798 11.4554 17.6262 11.8314C17.672 12.2033 17.739 12.5624 17.8256 12.9081L17.8263 12.908C17.9132 13.2488 18.0308 13.5767 18.1781 13.8914C18.3295 14.2155 18.5135 14.5324 18.7301 14.8423L18.7312 14.8416C18.9449 15.1454 19.2125 15.4455 19.5339 15.7416C19.8657 16.0476 20.2512 16.3473 20.6895 16.6409C20.941 16.8095 21.0085 17.1504 20.8398 17.4023C20.7343 17.5601 20.561 17.6455 20.3842 17.6456V17.6474H15.4258H10.4674H5.5086H0.550181C0.246294 17.6474 0 17.4009 0 17.0969C0 16.8969 0.106423 16.722 0.265611 16.6255C0.711157 16.3236 1.09374 16.025 1.41319 15.7289C1.73103 15.4342 1.99718 15.1327 2.21128 14.8238C2.21771 14.8147 2.22415 14.8059 2.23095 14.7973C2.43789 14.4941 2.61497 14.185 2.76164 13.8712C2.91081 13.552 3.03047 13.2227 3.12008 12.8834C3.12186 12.8763 3.12383 12.8693 3.12598 12.8623C3.21094 12.5329 3.27569 12.1857 3.32058 11.8217C3.36565 11.4553 3.38819 11.0768 3.38819 10.6872V8.07987C3.38819 7.66092 3.42575 7.24359 3.50069 6.82894C3.57564 6.41482 3.686 6.01718 3.83141 5.63744C3.97611 5.25771 4.14961 4.89373 4.35101 4.54603C4.55115 4.20067 4.77974 3.87232 5.03569 3.56205L5.03873 3.55847L5.03802 3.55775C5.29343 3.25213 5.57371 2.96836 5.87885 2.7075C6.17987 2.45023 6.50487 2.2164 6.85365 2.00675C7.2069 1.79567 7.57178 1.61842 7.94972 1.47483C8.21247 1.37493 8.48255 1.29114 8.75979 1.22329C8.8544 0.891888 9.01681 0.623691 9.24665 0.418335C9.56395 0.13474 9.98231 -0.00437129 10.5014 0.00010464C11.0156 0.00458057 11.4304 0.147094 11.7448 0.428182C11.9754 0.634254 12.1385 0.901377 12.2338 1.22973ZM12.6266 2.51199C12.3224 2.39204 12.012 2.29751 11.696 2.22965C11.4526 2.19814 11.2521 2.00532 11.2209 1.75037C11.1912 1.51028 11.1224 1.34199 11.0145 1.24567C10.9063 1.14881 10.7323 1.09939 10.4928 1.09724C10.2549 1.0951 10.083 1.14129 9.9773 1.23582C9.86999 1.33178 9.80202 1.50169 9.7734 1.74607H9.77286C9.74639 1.97936 9.57129 2.17827 9.32857 2.22357C8.98605 2.28856 8.65569 2.38166 8.33642 2.50304C8.01769 2.62407 7.71129 2.77285 7.41653 2.94884C7.12302 3.1252 6.84828 3.32321 6.59215 3.542C6.33638 3.7606 6.09903 4.0014 5.88028 4.26316L5.87957 4.26262C5.666 4.52204 5.47283 4.80027 5.30112 5.09675C5.1321 5.3884 4.98436 5.69939 4.8588 6.029C4.73324 6.35664 4.64023 6.68821 4.57977 7.02265C4.51896 7.35817 4.48873 7.71087 4.48873 8.08005V10.6875C4.48873 11.1194 4.46315 11.5423 4.41236 11.9557C4.36335 12.3538 4.28841 12.7484 4.18771 13.1382C4.18592 13.1466 4.18395 13.1552 4.1818 13.1636C4.07681 13.5609 3.93426 13.9517 3.7545 14.3361C3.581 14.7073 3.37442 15.0682 3.13546 15.4186C3.12866 15.4301 3.12151 15.4413 3.11382 15.4524C2.86198 15.8152 2.54289 16.1756 2.15654 16.5336L2.14259 16.5464H5.5086H10.4674H15.4258H18.7861C18.4085 16.1979 18.0909 15.8406 17.8331 15.4741L17.8338 15.4734L17.8331 15.472C17.5798 15.1096 17.3636 14.7375 17.1855 14.3564C17.0034 13.9675 16.8619 13.5751 16.7607 13.1792L16.761 13.179L16.7607 13.1771C16.6614 12.7828 16.5856 12.3784 16.5346 11.9648C16.4861 11.5693 16.4602 11.152 16.458 10.713V10.7117C16.4548 10.3039 16.4525 9.87812 16.4507 9.43464C16.4475 8.61394 16.4462 8.16599 16.4462 8.08005C16.4462 7.71768 16.4158 7.36533 16.3546 7.02337C16.2938 6.68266 16.203 6.35323 16.0826 6.03562L16.0833 6.03544L16.0826 6.03347C15.959 5.70602 15.8136 5.39664 15.6463 5.10642C15.4793 4.81692 15.2879 4.54084 15.072 4.27891L15.0724 4.27873C14.8583 4.02128 14.6234 3.7828 14.3678 3.56312C14.1201 3.35043 13.8584 3.15921 13.5821 2.98895C13.5699 2.98268 13.5576 2.97606 13.5458 2.96872C13.2476 2.78896 12.9414 2.63625 12.6266 2.51199Z"/>
</mask>
<path d="M13.5628 19.4416C13.4946 19.8005 13.3744 20.13 13.2013 20.43C13.0224 20.7396 12.7883 21.0171 12.4991 21.2622C12.2099 21.5069 11.8943 21.6913 11.5542 21.8147C11.2132 21.9381 10.8505 22 10.4674 22C10.0841 22 9.72153 21.9381 9.38044 21.8147C9.04006 21.6915 8.72491 21.5069 8.43569 21.2622C8.14629 21.0171 7.91216 20.7394 7.73329 20.43C7.55479 20.1207 7.43245 19.7801 7.36591 19.4084C7.33354 19.2267 7.45445 19.0527 7.63599 19.0201C7.64172 19.0192 7.69484 19.014 7.69484 19.0137H13.2398C13.4252 19.0137 13.5755 19.1641 13.5755 19.3494C13.5753 19.3814 13.5712 19.4122 13.5628 19.4416ZM12.2338 1.22973C12.5059 1.30081 12.7701 1.3871 13.0262 1.48826C13.4034 1.63722 13.7658 1.81697 14.113 2.02663C14.1266 2.03504 14.1398 2.04399 14.1528 2.05312C14.4857 2.25794 14.7953 2.48299 15.081 2.72845C15.3797 2.98519 15.6582 3.26896 15.9163 3.57959L15.9184 3.58192H15.9188C16.171 3.88772 16.3967 4.2141 16.5961 4.55982C16.7963 4.90733 16.9674 5.26917 17.1089 5.64407L17.1096 5.64389C17.2559 6.02954 17.3654 6.42485 17.4377 6.82947C17.5103 7.23607 17.5462 7.65287 17.5462 8.07987C17.5462 8.92385 17.5462 9.37914 17.5466 9.43446C17.5484 9.8672 17.5507 10.2901 17.5539 10.7029V10.7072C17.5553 11.0802 17.5798 11.4554 17.6262 11.8314C17.672 12.2033 17.739 12.5624 17.8256 12.9081L17.8263 12.908C17.9132 13.2488 18.0308 13.5767 18.1781 13.8914C18.3295 14.2155 18.5135 14.5324 18.7301 14.8423L18.7312 14.8416C18.9449 15.1454 19.2125 15.4455 19.5339 15.7416C19.8657 16.0476 20.2512 16.3473 20.6895 16.6409C20.941 16.8095 21.0085 17.1504 20.8398 17.4023C20.7343 17.5601 20.561 17.6455 20.3842 17.6456V17.6474H15.4258H10.4674H5.5086H0.550181C0.246294 17.6474 0 17.4009 0 17.0969C0 16.8969 0.106423 16.722 0.265611 16.6255C0.711157 16.3236 1.09374 16.025 1.41319 15.7289C1.73103 15.4342 1.99718 15.1327 2.21128 14.8238C2.21771 14.8147 2.22415 14.8059 2.23095 14.7973C2.43789 14.4941 2.61497 14.185 2.76164 13.8712C2.91081 13.552 3.03047 13.2227 3.12008 12.8834C3.12186 12.8763 3.12383 12.8693 3.12598 12.8623C3.21094 12.5329 3.27569 12.1857 3.32058 11.8217C3.36565 11.4553 3.38819 11.0768 3.38819 10.6872V8.07987C3.38819 7.66092 3.42575 7.24359 3.50069 6.82894C3.57564 6.41482 3.686 6.01718 3.83141 5.63744C3.97611 5.25771 4.14961 4.89373 4.35101 4.54603C4.55115 4.20067 4.77974 3.87232 5.03569 3.56205L5.03873 3.55847L5.03802 3.55775C5.29343 3.25213 5.57371 2.96836 5.87885 2.7075C6.17987 2.45023 6.50487 2.2164 6.85365 2.00675C7.2069 1.79567 7.57178 1.61842 7.94972 1.47483C8.21247 1.37493 8.48255 1.29114 8.75979 1.22329C8.8544 0.891888 9.01681 0.623691 9.24665 0.418335C9.56395 0.13474 9.98231 -0.00437129 10.5014 0.00010464C11.0156 0.00458057 11.4304 0.147094 11.7448 0.428182C11.9754 0.634254 12.1385 0.901377 12.2338 1.22973ZM12.6266 2.51199C12.3224 2.39204 12.012 2.29751 11.696 2.22965C11.4526 2.19814 11.2521 2.00532 11.2209 1.75037C11.1912 1.51028 11.1224 1.34199 11.0145 1.24567C10.9063 1.14881 10.7323 1.09939 10.4928 1.09724C10.2549 1.0951 10.083 1.14129 9.9773 1.23582C9.86999 1.33178 9.80202 1.50169 9.7734 1.74607H9.77286C9.74639 1.97936 9.57129 2.17827 9.32857 2.22357C8.98605 2.28856 8.65569 2.38166 8.33642 2.50304C8.01769 2.62407 7.71129 2.77285 7.41653 2.94884C7.12302 3.1252 6.84828 3.32321 6.59215 3.542C6.33638 3.7606 6.09903 4.0014 5.88028 4.26316L5.87957 4.26262C5.666 4.52204 5.47283 4.80027 5.30112 5.09675C5.1321 5.3884 4.98436 5.69939 4.8588 6.029C4.73324 6.35664 4.64023 6.68821 4.57977 7.02265C4.51896 7.35817 4.48873 7.71087 4.48873 8.08005V10.6875C4.48873 11.1194 4.46315 11.5423 4.41236 11.9557C4.36335 12.3538 4.28841 12.7484 4.18771 13.1382C4.18592 13.1466 4.18395 13.1552 4.1818 13.1636C4.07681 13.5609 3.93426 13.9517 3.7545 14.3361C3.581 14.7073 3.37442 15.0682 3.13546 15.4186C3.12866 15.4301 3.12151 15.4413 3.11382 15.4524C2.86198 15.8152 2.54289 16.1756 2.15654 16.5336L2.14259 16.5464H5.5086H10.4674H15.4258H18.7861C18.4085 16.1979 18.0909 15.8406 17.8331 15.4741L17.8338 15.4734L17.8331 15.472C17.5798 15.1096 17.3636 14.7375 17.1855 14.3564C17.0034 13.9675 16.8619 13.5751 16.7607 13.1792L16.761 13.179L16.7607 13.1771C16.6614 12.7828 16.5856 12.3784 16.5346 11.9648C16.4861 11.5693 16.4602 11.152 16.458 10.713V10.7117C16.4548 10.3039 16.4525 9.87812 16.4507 9.43464C16.4475 8.61394 16.4462 8.16599 16.4462 8.08005C16.4462 7.71768 16.4158 7.36533 16.3546 7.02337C16.2938 6.68266 16.203 6.35323 16.0826 6.03562L16.0833 6.03544L16.0826 6.03347C15.959 5.70602 15.8136 5.39664 15.6463 5.10642C15.4793 4.81692 15.2879 4.54084 15.072 4.27891L15.0724 4.27873C14.8583 4.02128 14.6234 3.7828 14.3678 3.56312C14.1201 3.35043 13.8584 3.15921 13.5821 2.98895C13.5699 2.98268 13.5576 2.97606 13.5458 2.96872C13.2476 2.78896 12.9414 2.63625 12.6266 2.51199Z" fill="#767676" stroke="#767676" stroke-width="4" mask="url(#path-1-inside-1_262_1166)"/>
</svg>
