<svg width="22" height="22" viewBox="0 0 22 22" fill="none" xmlns="http://www.w3.org/2000/svg">
<path d="M20.9577 15.9459C19.0984 14.7242 17.3605 13.9802 15.6446 13.6714H15.6445C14.9634 13.5498 14.2497 13.7716 13.7364 14.2668L12.6758 15.2899C12.6044 15.3591 12.5011 15.3749 12.4246 15.33C11.2038 14.6128 10.0681 13.7172 9.04911 12.6682C8.27373 11.8706 7.57701 10.9926 6.97888 10.0587C6.91879 9.96493 6.92687 9.8444 6.99859 9.76544L8.14292 8.5063C8.62282 7.97831 8.83864 7.24532 8.72008 6.54562C8.42124 4.78041 7.69742 2.99048 6.50752 1.07299C5.96409 0.197563 4.92848 -0.202276 3.98931 0.0999756C3.14802 0.371287 2.30027 0.900292 1.46965 1.67167C0.465221 2.60464 -0.0806011 4.00474 0.00967311 5.417C0.254563 9.25129 2.15244 13.1772 5.35376 16.4716C8.80692 20.026 12.9504 22 16.8769 22C17.2314 22 17.5849 21.984 17.9354 21.9513C19.3844 21.817 20.6725 20.9907 21.3813 19.7412C21.602 19.3517 21.7758 18.9549 21.8977 18.5617C22.2006 17.584 21.8142 16.5084 20.9579 15.946L20.9577 15.9459ZM20.7275 18.1773C20.6329 18.4825 20.4959 18.7945 20.3203 19.1042C19.8116 20.0013 18.8787 20.5949 17.8249 20.6927C13.957 21.0518 9.7283 19.1873 6.22154 15.5784C3.2312 12.5007 1.46012 8.86265 1.23474 5.33411C1.169 4.3044 1.56411 3.28597 2.29198 2.61001C2.99048 1.96116 3.68492 1.52259 4.35609 1.30614C4.44235 1.27838 4.53152 1.26491 4.62084 1.26491C4.95054 1.26491 5.28184 1.44695 5.47214 1.75336C6.57301 3.5272 7.23934 5.16571 7.50991 6.76294C7.56257 7.07415 7.46387 7.40315 7.2458 7.64322L6.10147 8.90237C5.64046 9.40958 5.57955 10.1715 5.95334 10.7548C6.59738 11.7596 7.34674 12.7042 8.18042 13.5622C9.27678 14.6907 10.4996 15.6547 11.8152 16.4276C12.3636 16.7503 13.0467 16.6637 13.515 16.2126L14.5761 15.1891C14.8095 14.9641 15.1294 14.8617 15.4328 14.9168L15.4326 14.9164C16.9858 15.1959 18.5767 15.8811 20.2966 17.0109C20.678 17.2616 20.8591 17.7522 20.7272 18.1773L20.7275 18.1773Z" fill="#807A7A"/>
</svg>
