<svg width="22" height="22" viewBox="0 0 22 22" fill="none" xmlns="http://www.w3.org/2000/svg">
<ellipse cx="10.6137" cy="6.67153" rx="4.37986" ry="4.37986" stroke="#807A7A" stroke-width="1.5" stroke-linecap="round" stroke-linejoin="round"/>
<path fill-rule="evenodd" clip-rule="evenodd" d="M3.66652 17.1429C3.66534 16.835 3.7342 16.5309 3.86789 16.2535C4.28742 15.4145 5.47049 14.9698 6.45218 14.7684C7.16017 14.6173 7.87795 14.5164 8.60016 14.4664C9.93727 14.3489 11.2821 14.3489 12.6192 14.4664C13.3414 14.517 14.0591 14.6179 14.7672 14.7684C15.7489 14.9698 16.932 15.3725 17.3515 16.2535C17.6203 16.8189 17.6203 17.4753 17.3515 18.0407C16.932 18.9217 15.7489 19.3245 14.7672 19.5175C14.06 19.6748 13.342 19.7786 12.6192 19.8279C11.5309 19.9202 10.4375 19.937 9.34692 19.8783C9.0952 19.8783 8.85187 19.8783 8.60016 19.8279C7.88008 19.7792 7.1648 19.6754 6.46057 19.5175C5.47049 19.3245 4.29581 18.9217 3.86789 18.0407C3.73489 17.7601 3.66609 17.4534 3.66652 17.1429Z" stroke="#807A7A" stroke-width="1.5" stroke-linecap="round" stroke-linejoin="round"/>
</svg>
