<svg width="21" height="20" viewBox="0 0 21 20" fill="none" xmlns="http://www.w3.org/2000/svg">
<path d="M10.4413 19.8539L3.15564 13.236C1.70116 11.9447 0.67553 10.24 0.216237 8.35021C0.0142715 7.59802 -0.0469475 6.81505 0.035654 6.04055C0.371482 2.53845 2.88897 0 6.03646 0C7.75077 0.00102518 9.37396 0.771837 10.4584 2.09963C11.586 0.776374 13.2341 0.00997322 14.9726 0C18.1221 0 20.6416 2.54062 20.9648 6.0428C21.0467 6.81726 20.9854 7.60008 20.7842 8.35246C20.3267 10.2406 19.3041 11.9442 17.8531 13.2363L10.4413 19.8539ZM6.03212 1.3772C3.60503 1.3772 1.65853 3.40124 1.41295 6.19172V6.24005C1.35217 6.84317 1.4027 7.45244 1.56204 8.03741C1.95704 9.65532 2.83595 11.1143 4.08156 12.2198L10.4498 18.0065L16.9418 12.2157C18.1813 11.1093 19.0548 9.65206 19.4467 8.03741C19.6085 7.45142 19.6618 6.841 19.6041 6.23582V6.18968C19.35 3.3992 17.4058 1.37516 14.9849 1.37516V1.37502C13.3595 1.37531 11.8569 2.23969 11.0399 3.64483L10.4437 4.64222L9.85782 3.63853C9.47734 2.95735 8.92341 2.38895 8.25221 1.99103C7.58115 1.59312 6.81663 1.37985 6.03643 1.37299L6.03212 1.3772Z" fill="#D2CFD6"/>
</svg>
