<svg width="14" height="14" viewBox="0 0 14 14" fill="none" xmlns="http://www.w3.org/2000/svg">
<g clip-path="url(#clip0_1204_414)">
<path d="M13.1585 6.01766C13.1012 6.00836 13.0433 6.00407 12.9853 6.00483H3.10854L3.32391 5.90466C3.53442 5.80502 3.72593 5.66941 3.88986 5.50398L6.65954 2.7343C7.02431 2.38609 7.08561 1.82592 6.80479 1.40706C6.47795 0.960708 5.85118 0.863795 5.4048 1.19063C5.36874 1.21705 5.33446 1.24585 5.30225 1.27684L0.293786 6.2853C-0.0976257 6.67627 -0.0979701 7.3105 0.293003 7.70191C0.293253 7.70216 0.293535 7.70244 0.293786 7.70269L5.30225 12.7112C5.69397 13.1018 6.3282 13.1009 6.71886 12.7092C6.7496 12.6784 6.77831 12.6455 6.80479 12.611C7.08561 12.1921 7.02431 11.632 6.65954 11.2837L3.89487 8.50906C3.7479 8.36193 3.57893 8.23857 3.39402 8.14344L3.09352 8.00821H12.9301C13.4418 8.02721 13.8908 7.66976 13.9869 7.16679C14.0755 6.62071 13.7046 6.10625 13.1585 6.01766Z" fill="black"/>
</g>
<defs>
<clipPath id="clip0_1204_414">
<rect width="14" height="14" fill="white"/>
</clipPath>
</defs>
</svg>
