<svg width="20" height="19" viewBox="0 0 20 19" fill="none" xmlns="http://www.w3.org/2000/svg">
<g clip-path="url(#clip0_262_5764)">
<path d="M5.25862 7.80864C5.9004 8.96633 6.64007 10.0774 7.60041 11.0906C8.56385 12.1099 9.76194 13.0376 11.3128 13.8302C11.4278 13.8861 11.5365 13.8861 11.6344 13.8472C11.7821 13.7913 11.9328 13.6685 12.0804 13.5209C12.1954 13.4059 12.3384 13.2226 12.4875 13.0221C13.0843 12.2374 13.8224 11.263 14.8651 11.751C14.8884 11.7619 14.9055 11.7743 14.9288 11.7836L18.4065 13.7835C18.4174 13.7897 18.4298 13.8006 18.4391 13.8068C18.8975 14.1223 19.0871 14.6087 19.0918 15.1603C19.0918 15.7213 18.8851 16.3522 18.5821 16.8852C18.1812 17.5891 17.5907 18.0553 16.91 18.363C16.2621 18.6613 15.541 18.8214 14.848 18.924C13.7602 19.084 12.7408 18.9815 11.6981 18.6613C10.6788 18.3459 9.65161 17.8253 8.52966 17.1323L8.4473 17.0794C7.93295 16.7578 7.37664 16.4144 6.83121 16.0088C4.83595 14.5015 2.80185 12.3244 1.47634 9.92822C0.365273 7.91742 -0.240763 5.74657 0.0902258 3.67828C0.27359 2.5439 0.759973 1.51209 1.60842 0.831462C2.3481 0.23475 3.34417 -0.0915771 4.63394 0.0234143C4.78156 0.0342919 4.91365 0.119758 4.98358 0.247181L7.21348 4.01704C7.5398 4.43971 7.58021 4.85927 7.4015 5.27883C7.25388 5.62225 6.95552 5.93926 6.54839 6.2345C6.42874 6.33706 6.28578 6.44118 6.13504 6.54995C5.63623 6.91202 5.06904 7.33003 5.26328 7.82108L5.25862 7.80864Z" fill="black"/>
</g>
<defs>
<clipPath id="clip0_262_5764">
<rect width="19.0948" height="19" fill="white"/>
</clipPath>
</defs>
</svg>
