<svg width="56" height="59" viewBox="0 0 56 59" fill="none" xmlns="http://www.w3.org/2000/svg">
<path d="M52.8917 35.22L53.0076 35.2779C55.7012 36.7841 56.7439 40.1728 55.3247 42.8954C50.4009 52.3087 40.4952 58.7386 29.1124 58.6518C13.2403 58.5359 0.235504 45.618 0.00379338 29.7459C-0.256881 13.3523 12.9506 0 29.3152 0C38.5546 0 46.8093 4.28665 52.1677 10.9773L41.6827 16.6542C38.3229 13.3813 33.6598 11.4117 28.5621 11.6145C19.2068 11.991 11.6762 19.7244 11.5604 29.1086C11.4445 39.0143 19.4385 47.0662 29.2862 47.0662C36.1217 47.0662 42.0593 43.214 45.0136 37.5371C46.5197 34.6987 50.0823 33.656 52.8917 35.22Z" fill="#5669FF"/>
<path d="M55.4117 15.9589C56.7151 18.5077 55.7882 21.6358 53.2684 23.0261L46.8384 26.5886L30.9083 35.4226C28.4174 36.8129 25.2893 36.1177 23.6094 33.8006L23.5515 33.7137C21.553 30.9622 22.4219 27.0521 25.4341 25.4301L41.7118 16.6251L52.1967 10.9482C53.4132 12.5122 54.4848 14.1921 55.4117 15.9589Z" fill="#00F8FF"/>
</svg>
