<svg width="12" height="12" viewBox="0 0 12 12" fill="none" xmlns="http://www.w3.org/2000/svg">
<path d="M11.2495 0.750011C10.2495 -0.250004 8.64951 -0.250004 7.64952 0.750011L7.12452 1.27501L10.7245 4.87498L11.2495 4.34998C12.2495 3.34997 12.2495 1.725 11.2495 0.750011Z" fill="white"/>
<path d="M0 8.39997L0.150059 11.8499L3.60003 12L4.15005 11.45L0.550078 7.85001L0 8.39997Z" fill="white"/>
<path d="M2.28358 8.8572L8.15251 2.98827L9.00107 3.83684L3.13215 9.70576L2.28358 8.8572Z" fill="white"/>
<path d="M0.908454 7.49868L6.77738 1.62975L7.80269 2.65506L1.93376 8.52399L0.908454 7.49868Z" fill="white"/>
<path d="M3.48241 10.0743L9.35134 4.20535L10.3766 5.23065L4.50771 11.0996L3.48241 10.0743Z" fill="white"/>
</svg>
