<svg width="8" height="8" viewBox="0 0 8 8" fill="none" xmlns="http://www.w3.org/2000/svg">
<path d="M7.14642 0.853561L7.1464 0.85359L7.15093 0.858012C7.61267 1.3082 7.62032 2.0687 7.14997 2.54288L5.4571 0.850014C5.92871 0.382151 6.67619 0.383327 7.14642 0.853561ZM7.49998 0.500009C6.83448 -0.165484 5.77044 -0.166667 5.10355 0.496459L7.50353 2.89644C8.16665 2.22947 8.16547 1.14885 7.49998 0.500009Z" fill="white" stroke="white"/>
<path d="M1.90425 7.47796L0.57965 7.42034L0.522036 6.09575L1.90425 7.47796Z" fill="white" stroke="white"/>
<mask id="path-3-inside-1_323_147" fill="white">
<path d="M1.52246 5.90474L5.43509 1.99211L6.0008 2.55782L2.08817 6.47045L1.52246 5.90474Z"/>
</mask>
<path d="M1.52246 5.90474L5.43509 1.99211L6.0008 2.55782L2.08817 6.47045L1.52246 5.90474Z" fill="white"/>
<path d="M1.52246 5.90474L0.815353 5.19763L0.108247 5.90474L0.815353 6.61184L1.52246 5.90474ZM5.43509 1.99211L6.14219 1.285L5.43509 0.577897L4.72798 1.285L5.43509 1.99211ZM6.0008 2.55782L6.7079 3.26492L7.41501 2.55782L6.7079 1.85071L6.0008 2.55782ZM2.08817 6.47045L1.38106 7.17755L2.08817 7.88466L2.79527 7.17755L2.08817 6.47045ZM2.22956 6.61184L6.14219 2.69921L4.72798 1.285L0.815353 5.19763L2.22956 6.61184ZM4.72798 2.69921L5.29369 3.26492L6.7079 1.85071L6.14219 1.285L4.72798 2.69921ZM5.29369 1.85071L1.38106 5.76334L2.79527 7.17755L6.7079 3.26492L5.29369 1.85071ZM2.79527 5.76334L2.22956 5.19763L0.815353 6.61184L1.38106 7.17755L2.79527 5.76334Z" fill="white" mask="url(#path-3-inside-1_323_147)"/>
<mask id="path-5-inside-2_323_147" fill="white">
<path d="M0.605468 4.99908L4.5181 1.08645L5.20163 1.76999L1.28901 5.68262L0.605468 4.99908Z"/>
</mask>
<path d="M0.605468 4.99908L4.5181 1.08645L5.20163 1.76999L1.28901 5.68262L0.605468 4.99908Z" fill="white"/>
<path d="M0.605468 4.99908L-0.101638 4.29198L-0.808743 4.99908L-0.101638 5.70619L0.605468 4.99908ZM4.5181 1.08645L5.2252 0.379349L4.5181 -0.327757L3.81099 0.379349L4.5181 1.08645ZM5.20163 1.76999L5.90874 2.4771L6.61584 1.76999L5.90874 1.06289L5.20163 1.76999ZM1.28901 5.68262L0.5819 6.38973L1.28901 7.09683L1.99611 6.38973L1.28901 5.68262ZM1.31257 5.70619L5.2252 1.79356L3.81099 0.379349L-0.101638 4.29198L1.31257 5.70619ZM3.81099 1.79356L4.49453 2.4771L5.90874 1.06289L5.2252 0.379349L3.81099 1.79356ZM4.49453 1.06289L0.5819 4.97552L1.99611 6.38973L5.90874 2.4771L4.49453 1.06289ZM1.99611 4.97552L1.31257 4.29198L-0.101638 5.70619L0.5819 6.38973L1.99611 4.97552Z" fill="white" mask="url(#path-5-inside-2_323_147)"/>
<mask id="path-7-inside-3_323_147" fill="white">
<path d="M2.32177 6.71618L6.2344 2.80355L6.91794 3.48709L3.00531 7.39972L2.32177 6.71618Z"/>
</mask>
<path d="M2.32177 6.71618L6.2344 2.80355L6.91794 3.48709L3.00531 7.39972L2.32177 6.71618Z" fill="white"/>
<path d="M2.32177 6.71618L1.61467 6.00908L0.907562 6.71618L1.61467 7.42329L2.32177 6.71618ZM6.2344 2.80355L6.94151 2.09645L6.2344 1.38934L5.5273 2.09645L6.2344 2.80355ZM6.91794 3.48709L7.62504 4.1942L8.33215 3.48709L7.62504 2.77999L6.91794 3.48709ZM3.00531 7.39972L2.29821 8.10683L3.00531 8.81393L3.71242 8.10683L3.00531 7.39972ZM3.02888 7.42329L6.94151 3.51066L5.5273 2.09645L1.61467 6.00908L3.02888 7.42329ZM5.5273 3.51066L6.21083 4.1942L7.62504 2.77999L6.94151 2.09645L5.5273 3.51066ZM6.21083 2.77999L2.29821 6.69261L3.71242 8.10683L7.62504 4.1942L6.21083 2.77999ZM3.71242 6.69261L3.02888 6.00908L1.61467 7.42329L2.29821 8.10683L3.71242 6.69261Z" fill="white" mask="url(#path-7-inside-3_323_147)"/>
</svg>
