<svg width="13" height="13" viewBox="0 0 13 13" fill="none" xmlns="http://www.w3.org/2000/svg">
<g clip-path="url(#clip0_262_7930)">
<path d="M6.81574 0.21159L8.47789 4.09453L12.6962 4.47119C12.7628 4.47664 12.8263 4.50169 12.8787 4.54318C12.9311 4.58466 12.9701 4.64073 12.9907 4.70431C13.0113 4.7679 13.0126 4.83615 12.9944 4.90048C12.9763 4.9648 12.9396 5.02233 12.8888 5.06579L9.69568 7.84839L10.6373 11.9747C10.6471 12.018 10.6483 12.0629 10.6408 12.1067C10.6332 12.1505 10.6171 12.1924 10.5933 12.23C10.5695 12.2675 10.5385 12.3 10.5021 12.3256C10.4657 12.3511 10.4247 12.3692 10.3813 12.3788C10.2915 12.3978 10.1979 12.3803 10.121 12.3302L6.49728 10.1676L2.86403 12.3408C2.82607 12.3638 2.78394 12.379 2.74005 12.3857C2.69616 12.3924 2.65139 12.3903 2.60832 12.3796C2.56524 12.3688 2.52471 12.3497 2.48906 12.3232C2.45342 12.2968 2.42336 12.2635 2.40062 12.2254C2.37784 12.1881 2.36266 12.1466 2.35594 12.1034C2.34922 12.0602 2.3511 12.0161 2.36147 11.9736L3.30417 7.84733L0.11529 5.06579C0.0482612 5.00632 0.00718464 4.92297 0.000856518 4.83358C-0.00547161 4.7442 0.0234519 4.65589 0.0814329 4.58757C0.145335 4.52209 0.232261 4.48413 0.32372 4.48177L4.52618 4.10511L6.18833 0.21159C6.21514 0.150736 6.25908 0.0989933 6.31478 0.0626669C6.37048 0.0263405 6.43554 0.00699902 6.50204 0.00699902C6.56854 0.00699902 6.6336 0.0263405 6.6893 0.0626669C6.745 0.0989933 6.78893 0.150736 6.81574 0.21159Z" fill="#FFD401"/>
</g>
<defs>
<clipPath id="clip0_262_7930">
<rect width="12.9248" height="12.3168" fill="white" transform="scale(1.00589)"/>
</clipPath>
</defs>
</svg>
