<svg width="28" height="28" viewBox="0 0 28 28" fill="none" xmlns="http://www.w3.org/2000/svg">
<g clip-path="url(#clip0_342_91)">
<path d="M24.5594 10.5H24.4474C24.2832 10.4985 24.1233 10.4477 23.9885 10.354C23.8536 10.2604 23.7501 10.1283 23.6914 9.97497C23.6296 9.82692 23.6132 9.66383 23.6444 9.50646C23.6756 9.34909 23.7528 9.20454 23.8664 9.09122L23.946 9.01159C24.426 8.52977 24.6955 7.87738 24.6955 7.19728C24.6955 6.51718 24.426 5.86479 23.946 5.38297L22.6239 4.06172C22.1425 3.58136 21.4901 3.31159 20.81 3.31159C20.1299 3.31159 19.4776 3.58136 18.9962 4.06172L18.9165 4.14134C18.7992 4.25432 18.6515 4.33059 18.4914 4.3608C18.3314 4.39101 18.166 4.37384 18.0156 4.31141C17.8652 4.24897 17.7363 4.14398 17.6446 4.00932C17.553 3.87466 17.5027 3.71618 17.4999 3.55334V3.44047C17.4992 2.76027 17.2287 2.10813 16.7477 1.62715C16.2667 1.14618 15.6146 0.875663 14.9344 0.874968H13.0654C12.3852 0.875663 11.7331 1.14618 11.2521 1.62715C10.7711 2.10813 10.5006 2.76027 10.4999 3.44047V3.55334C10.4956 3.71502 10.4446 3.87199 10.353 4.00525C10.2613 4.13851 10.133 4.24236 9.98359 4.3042C9.83415 4.36605 9.66999 4.38326 9.51098 4.35373C9.35197 4.3242 9.20493 4.24922 9.08765 4.13784L9.01241 4.05822C8.53096 3.57786 7.87863 3.30809 7.19853 3.30809C6.51843 3.30809 5.8661 3.57786 5.38465 4.05822L4.05816 5.37947C3.57817 5.86129 3.30868 6.51368 3.30868 7.19378C3.30868 7.87388 3.57817 8.52627 4.05816 9.00809L4.13778 9.08772C4.25245 9.20504 4.3292 9.35413 4.35807 9.51562C4.38694 9.67712 4.36658 9.84356 4.29966 9.99334C4.23961 10.1425 4.13644 10.2704 4.00333 10.3607C3.87022 10.4509 3.71322 10.4994 3.5524 10.5H3.4404C2.76021 10.5007 2.10806 10.7712 1.62709 11.2522C1.14612 11.7331 0.8756 12.3853 0.874905 13.0655V14.9345C0.8756 15.6147 1.14612 16.2668 1.62709 16.7478C2.10806 17.2288 2.76021 17.4993 3.4404 17.5H3.5524C3.71657 17.5014 3.87649 17.5523 4.01134 17.6459C4.14619 17.7396 4.2497 17.8716 4.3084 18.025C4.37021 18.173 4.38657 18.3361 4.3554 18.4935C4.32424 18.6509 4.24696 18.7954 4.1334 18.9087L4.05378 18.9883C3.5738 19.4702 3.3043 20.1226 3.3043 20.8027C3.3043 21.4828 3.5738 22.1351 4.05378 22.617L5.37503 23.9373C5.8564 24.4182 6.50896 24.6883 7.18934 24.6883C7.86973 24.6883 8.52228 24.4182 9.00365 23.9373L9.08328 23.8577C9.20067 23.7432 9.34975 23.6665 9.51122 23.6376C9.67268 23.6087 9.8391 23.629 9.9889 23.6958C10.1381 23.7556 10.266 23.8586 10.3563 23.9916C10.4466 24.1246 10.495 24.2815 10.4955 24.4422V24.5551C10.4953 24.8926 10.5616 25.2269 10.6907 25.5388C10.8197 25.8507 11.009 26.1341 11.2477 26.3728C11.4864 26.6115 11.7698 26.8007 12.0817 26.9298C12.3936 27.0589 12.7279 27.1252 13.0654 27.125H14.9344C15.6146 27.1243 16.2667 26.8538 16.7477 26.3728C17.2287 25.8918 17.4992 25.2397 17.4999 24.5595V24.4466C17.5042 24.2849 17.5552 24.128 17.6468 23.9947C17.7385 23.8614 17.8668 23.7576 18.0162 23.6957C18.1657 23.6339 18.3298 23.6167 18.4888 23.6462C18.6478 23.6757 18.7949 23.7507 18.9122 23.8621L18.9918 23.9417C19.4732 24.4221 20.1256 24.6918 20.8057 24.6918C21.4858 24.6918 22.1381 24.4221 22.6195 23.9417L23.9417 22.6213C24.4216 22.1395 24.6911 21.4871 24.6911 20.807C24.6911 20.1269 24.4216 19.4745 23.9417 18.9927L23.862 18.9131C23.7474 18.7958 23.6706 18.6467 23.6417 18.4852C23.6129 18.3237 23.6332 18.1573 23.7002 18.0075C23.7601 17.8581 23.8632 17.73 23.9963 17.6396C24.1294 17.5492 24.2865 17.5006 24.4474 17.5H24.5594C25.2396 17.4993 25.8917 17.2288 26.3727 16.7478C26.8537 16.2668 27.1242 15.6147 27.1249 14.9345V13.0655C27.1242 12.3853 26.8537 11.7331 26.3727 11.2522C25.8917 10.7712 25.2396 10.5007 24.5594 10.5ZM25.3749 14.9345C25.3747 15.1507 25.2887 15.358 25.1358 15.5109C24.9829 15.6637 24.7756 15.7497 24.5594 15.75H24.4474C23.9396 15.7543 23.4444 15.908 23.0234 16.1919C22.6023 16.4758 22.2742 16.8773 22.0799 17.3464C21.8855 17.8156 21.8335 18.3315 21.9304 18.83C22.0274 19.3284 22.2688 19.7873 22.6248 20.1495L22.7035 20.2291C22.8563 20.3823 22.9421 20.5898 22.9421 20.8062C22.9421 21.0225 22.8563 21.23 22.7035 21.3832L21.3814 22.7036C21.2285 22.8565 21.0211 22.9424 20.8048 22.9424C20.5885 22.9424 20.3811 22.8565 20.2282 22.7036L20.1494 22.624C19.7871 22.2684 19.3282 22.0273 18.8299 21.9306C18.3316 21.834 17.8158 21.886 17.3469 22.0803C16.8779 22.2746 16.4765 22.6025 16.1925 23.0233C15.9086 23.444 15.7546 23.939 15.7499 24.4466V24.5595C15.7497 24.7757 15.6637 24.983 15.5108 25.1359C15.3579 25.2887 15.1506 25.3747 14.9344 25.375H13.0654C12.8492 25.3747 12.6419 25.2887 12.489 25.1359C12.3361 24.983 12.2501 24.7757 12.2499 24.5595V24.4466C12.2474 23.938 12.0948 23.4414 11.8112 23.0192C11.5276 22.597 11.1256 22.268 10.6557 22.0734C10.1858 21.8788 9.66882 21.8273 9.16976 21.9254C8.67069 22.0235 8.21171 22.2669 7.85041 22.6248L7.77078 22.7045C7.61762 22.857 7.41029 22.9426 7.19416 22.9426C6.97802 22.9426 6.77069 22.857 6.61753 22.7045L5.29628 21.3841C5.14352 21.2309 5.05773 21.0234 5.05773 20.807C5.05773 20.5907 5.14352 20.3832 5.29628 20.23L5.37591 20.1503C5.7322 19.7882 5.97395 19.3291 6.07099 18.8304C6.16804 18.3318 6.11607 17.8155 5.92158 17.3462C5.72709 16.8769 5.39869 16.4752 4.97736 16.1913C4.55603 15.9075 4.06043 15.754 3.5524 15.75H3.4404C3.22419 15.7497 3.0169 15.6637 2.86402 15.5109C2.71113 15.358 2.62514 15.1507 2.62491 14.9345V13.0655C2.62514 12.8493 2.71113 12.642 2.86402 12.4891C3.0169 12.3362 3.22419 12.2502 3.4404 12.25H3.5524C4.06017 12.2456 4.55544 12.092 4.97645 11.8081C5.39747 11.5242 5.72561 11.1226 5.91995 10.6535C6.1143 10.1844 6.16627 9.66843 6.06936 9.16997C5.97246 8.67152 5.73098 8.21261 5.37503 7.85047L5.29628 7.77084C5.14357 7.6178 5.05781 7.41042 5.05781 7.19422C5.05781 6.97802 5.14357 6.77064 5.29628 6.61759L6.61753 5.29547C6.77046 5.14254 6.97788 5.05663 7.19416 5.05663C7.41043 5.05663 7.61785 5.14254 7.77078 5.29547L7.84953 5.37509C8.21173 5.73087 8.67061 5.97223 9.16899 6.0691C9.66738 6.16596 10.1832 6.11406 10.6523 5.91986C11.1215 5.72565 11.523 5.39772 11.8071 4.97692C12.0912 4.55611 12.2452 4.06103 12.2499 3.55334V3.44047C12.2501 3.22426 12.3361 3.01696 12.489 2.86408C12.6419 2.71119 12.8492 2.6252 13.0654 2.62497H14.9344C15.1506 2.6252 15.3579 2.71119 15.5108 2.86408C15.6637 3.01696 15.7497 3.22426 15.7499 3.44047V3.55334C15.7544 4.06104 15.9082 4.55618 16.1922 4.97707C16.4761 5.39795 16.8777 5.72595 17.3468 5.92019C17.8159 6.11443 18.3317 6.16632 18.8301 6.06939C19.3285 5.97246 19.7873 5.73099 20.1494 5.37509L20.229 5.29547C20.382 5.14254 20.5894 5.05663 20.8057 5.05663C21.0219 5.05663 21.2293 5.14254 21.3823 5.29547L22.7035 6.61759C22.8562 6.77064 22.942 6.97802 22.942 7.19422C22.942 7.41042 22.8562 7.6178 22.7035 7.77084L22.6239 7.85047C22.2679 8.21266 22.0264 8.67165 21.9295 9.17019C21.8327 9.66872 21.8847 10.1847 22.0792 10.6539C22.2736 11.1231 22.6019 11.5246 23.023 11.8084C23.4442 12.0923 23.9396 12.2458 24.4474 12.25H24.5594C24.7756 12.2502 24.9829 12.3362 25.1358 12.4891C25.2887 12.642 25.3747 12.8493 25.3749 13.0655V14.9345Z" fill="#767676"/>
<path d="M14.0002 7.87497C12.7888 7.87497 11.6045 8.23419 10.5973 8.90722C9.59004 9.58024 8.80499 10.5368 8.3414 11.656C7.87781 12.7752 7.75652 14.0068 7.99285 15.1949C8.22919 16.383 8.81254 17.4744 9.66913 18.331C10.5257 19.1876 11.6171 19.7709 12.8052 20.0073C13.9934 20.2436 15.2249 20.1223 16.3441 19.6587C17.4633 19.1951 18.4199 18.4101 19.0929 17.4028C19.7659 16.3956 20.1252 15.2114 20.1252 14C20.1233 12.3761 19.4774 10.8192 18.3291 9.67099C17.1809 8.52273 15.624 7.87682 14.0002 7.87497ZM14.0002 18.375C13.1349 18.375 12.289 18.1184 11.5695 17.6376C10.8501 17.1569 10.2893 16.4736 9.95819 15.6742C9.62705 14.8748 9.54041 13.9951 9.70922 13.1464C9.87804 12.2978 10.2947 11.5182 10.9066 10.9064C11.5184 10.2945 12.298 9.87784 13.1466 9.70903C13.9953 9.54022 14.875 9.62686 15.6744 9.958C16.4738 10.2891 17.1571 10.8499 17.6378 11.5693C18.1186 12.2888 18.3752 13.1347 18.3752 14C18.3738 15.1599 17.9124 16.2719 17.0922 17.092C16.272 17.9122 15.1601 18.3736 14.0002 18.375Z" fill="#767676"/>
</g>
<defs>
<clipPath id="clip0_342_91">
<rect width="27.0029" height="27.0029" fill="white" transform="scale(1.03692)"/>
</clipPath>
</defs>
</svg>
